<svg id="kity_svg_6" xmlns="http://www.w3.org/2000/svg" xmlns:xlink="http://www.w3.org/1999/xlink" version="1.1" width="1442" height="2530" style="background: rgb(251, 251, 251); visibility: visible;" viewBox="0 0 1442 2530"><defs id="kity_defs_7"><linearGradient id="kity_linearGradient_17" x1="0" y1="0" x2="0" y2="1"><stop id="kity_stop_18" offset="0" stop-color="rgb(255, 255, 255)"></stop><stop id="kity_stop_19" offset="1" stop-color="rgb(204, 204, 204)"></stop></linearGradient><marker id="kity_marker_2" orient="auto" refX="6" refY="0" viewBox="-7 -7 14 14" markerWidth="7" markerHeight="7" markerUnits="userSpaceOnUse"><path id="kity_path_3" fill="rgb(115, 161, 191)" stroke="none" d="M6,0A6,6,0,1,1,-6,0A6,6,0,1,1,6,0"></path></marker></defs><g id="kity_g_8"><g id="minder1" text-rendering="optimize-speed"><g id="minder_connect_group1"><path id="kity_path_31" fill="none" stroke="rgb(115, 161, 191)" stroke-width="1" d="M116.50001905858517,1195.5000078827143A101,827,0,0,1,217.50001905858517,368.50000788271427"></path><path id="kity_path_33" fill="none" stroke="rgb(115, 161, 191)" stroke-width="1" d="M316.50001905858517,368.50000788271427C336.50001905858517,368.50000788271427,336.50001905858517,56.50000788271427,356.50001905858517,56.50000788271427"></path><path id="kity_path_35" fill="none" stroke="rgb(115, 161, 191)" stroke-width="1" d="M401.50001905858517,56.50000788271427C421.50001905858517,56.50000788271427,421.50001905858517,30.50000788271427,441.50001905858517,30.50000788271427"></path><path id="kity_path_37" fill="none" stroke="rgb(115, 161, 191)" stroke-width="1" d="M401.50001905858517,56.50000788271427C421.50001905858517,56.50000788271427,421.50001905858517,82.50000788271427,441.50001905858517,82.50000788271427"></path><path id="kity_path_39" fill="none" stroke="rgb(115, 161, 191)" stroke-width="1" d="M316.50001905858517,368.50000788271427C336.50001905858517,368.50000788271427,336.50001905858517,134.50000788271427,356.50001905858517,134.50000788271427"></path><path id="kity_path_41" fill="none" stroke="rgb(115, 161, 191)" stroke-width="1" d="M401.50001905858517,134.50000788271427C421.50001905858517,134.50000788271427,421.50001905858517,134.50000788271427,441.50001905858517,134.50000788271427"></path><path id="kity_path_43" fill="none" stroke="rgb(115, 161, 191)" stroke-width="1" d="M316.50001905858517,368.50000788271427C336.50001905858517,368.50000788271427,336.50001905858517,186.50000788271427,356.50001905858517,186.50000788271427"></path><path id="kity_path_45" fill="none" stroke="rgb(115, 161, 191)" stroke-width="1" d="M401.50001905858517,186.50000788271427C421.50001905858517,186.50000788271427,421.50001905858517,186.50000788271427,441.50001905858517,186.50000788271427"></path><path id="kity_path_47" fill="none" stroke="rgb(115, 161, 191)" stroke-width="1" d="M316.50001905858517,368.50000788271427C336.50001905858517,368.50000788271427,336.50001905858517,368.50000788271427,356.50001905858517,368.50000788271427"></path><path id="kity_path_49" fill="none" stroke="rgb(115, 161, 191)" stroke-width="1" d="M401.50001905858517,368.50000788271427C421.50001905858517,368.50000788271427,421.50001905858517,238.50000788271427,441.50001905858517,238.50000788271427"></path><path id="kity_path_51" fill="none" stroke="rgb(115, 161, 191)" stroke-width="1" d="M534.5000190585852,238.50000788271427C554.5000190585852,238.50000788271427,554.5000190585852,238.50000788271427,574.5000190585852,238.50000788271427"></path><path id="kity_path_53" fill="none" stroke="rgb(115, 161, 191)" stroke-width="1" d="M401.50001905858517,368.50000788271427C421.50001905858517,368.50000788271427,421.50001905858517,290.50000788271427,441.50001905858517,290.50000788271427"></path><path id="kity_path_55" fill="none" stroke="rgb(115, 161, 191)" stroke-width="1" d="M522.5000190585852,290.50000788271427C542.5000190585852,290.50000788271427,542.5000190585852,290.50000788271427,562.5000190585852,290.50000788271427"></path><path id="kity_path_57" fill="none" stroke="rgb(115, 161, 191)" stroke-width="1" d="M401.50001905858517,368.50000788271427C421.50001905858517,368.50000788271427,421.50001905858517,342.50000788271427,441.50001905858517,342.50000788271427"></path><path id="kity_path_59" fill="none" stroke="rgb(115, 161, 191)" stroke-width="1" d="M534.5000190585852,342.50000788271427C554.5000190585852,342.50000788271427,554.5000190585852,342.50000788271427,574.5000190585852,342.50000788271427"></path><path id="kity_path_61" fill="none" stroke="rgb(115, 161, 191)" stroke-width="1" d="M401.50001905858517,368.50000788271427C421.50001905858517,368.50000788271427,421.50001905858517,394.50000788271427,441.50001905858517,394.50000788271427"></path><path id="kity_path_63" fill="none" stroke="rgb(115, 161, 191)" stroke-width="1" d="M534.5000190585852,394.50000788271427C554.5000190585852,394.50000788271427,554.5000190585852,394.50000788271427,574.5000190585852,394.50000788271427"></path><path id="kity_path_65" fill="none" stroke="rgb(115, 161, 191)" stroke-width="1" d="M401.50001905858517,368.50000788271427C421.50001905858517,368.50000788271427,421.50001905858517,446.50000788271427,441.50001905858517,446.50000788271427"></path><path id="kity_path_67" fill="none" stroke="rgb(115, 161, 191)" stroke-width="1" d="M534.5000190585852,446.50000788271427C554.5000190585852,446.50000788271427,554.5000190585852,446.50000788271427,574.5000190585852,446.50000788271427"></path><path id="kity_path_69" fill="none" stroke="rgb(115, 161, 191)" stroke-width="1" d="M401.50001905858517,368.50000788271427C421.50001905858517,368.50000788271427,421.50001905858517,498.50000788271427,441.50001905858517,498.50000788271427"></path><path id="kity_path_71" fill="none" stroke="rgb(115, 161, 191)" stroke-width="1" d="M534.5000190585852,498.50000788271427C554.5000190585852,498.50000788271427,554.5000190585852,498.50000788271427,574.5000190585852,498.50000788271427"></path><path id="kity_path_73" fill="none" stroke="rgb(115, 161, 191)" stroke-width="1" d="M316.50001905858517,368.50000788271427C336.50001905858517,368.50000788271427,336.50001905858517,680.5000078827143,356.50001905858517,680.5000078827143"></path><path id="kity_path_75" fill="none" stroke="rgb(115, 161, 191)" stroke-width="1" d="M425.50001905858517,680.5000078827143C445.50001905858517,680.5000078827143,445.50001905858517,550.5000078827143,465.50001905858517,550.5000078827143"></path><path id="kity_path_77" fill="none" stroke="rgb(115, 161, 191)" stroke-width="1" d="M510.50001905858517,550.5000078827143C530.5000190585852,550.5000078827143,530.5000190585852,550.5000078827143,550.5000190585852,550.5000078827143"></path><path id="kity_path_79" fill="none" stroke="rgb(115, 161, 191)" stroke-width="1" d="M425.50001905858517,680.5000078827143C445.50001905858517,680.5000078827143,445.50001905858517,628.5000078827143,465.50001905858517,628.5000078827143"></path><path id="kity_path_81" fill="none" stroke="rgb(115, 161, 191)" stroke-width="1" d="M510.50001905858517,628.5000078827143C530.5000190585852,628.5000078827143,530.5000190585852,602.5000078827143,550.5000190585852,602.5000078827143"></path><path id="kity_path_83" fill="none" stroke="rgb(115, 161, 191)" stroke-width="1" d="M510.50001905858517,628.5000078827143C530.5000190585852,628.5000078827143,530.5000190585852,654.5000078827143,550.5000190585852,654.5000078827143"></path><path id="kity_path_85" fill="none" stroke="rgb(115, 161, 191)" stroke-width="1" d="M425.50001905858517,680.5000078827143C445.50001905858517,680.5000078827143,445.50001905858517,706.5000078827143,465.50001905858517,706.5000078827143"></path><path id="kity_path_87" fill="none" stroke="rgb(115, 161, 191)" stroke-width="1" d="M425.50001905858517,680.5000078827143C445.50001905858517,680.5000078827143,445.50001905858517,758.5000078827143,465.50001905858517,758.5000078827143"></path><path id="kity_path_89" fill="none" stroke="rgb(115, 161, 191)" stroke-width="1" d="M522.5000190585852,758.5000078827143C542.5000190585852,758.5000078827143,542.5000190585852,758.5000078827143,562.5000190585852,758.5000078827143"></path><path id="kity_path_91" fill="none" stroke="rgb(115, 161, 191)" stroke-width="1" d="M425.50001905858517,680.5000078827143C445.50001905858517,680.5000078827143,445.50001905858517,810.5000078827143,465.50001905858517,810.5000078827143"></path><path id="kity_path_93" fill="none" stroke="rgb(115, 161, 191)" stroke-width="1" d="M510.50001905858517,810.5000078827143C530.5000190585852,810.5000078827143,530.5000190585852,810.5000078827143,550.5000190585852,810.5000078827143"></path><path id="kity_path_95" fill="none" stroke="rgb(115, 161, 191)" stroke-width="1" d="M116.50001905858517,1195.5000078827143A111,172,0,0,1,227.50001905858517,1023.5000078827143"></path><path id="kity_path_97" fill="none" stroke="rgb(115, 161, 191)" stroke-width="1" d="M326.50001905858517,1023.5000078827143C346.50001905858517,1023.5000078827143,346.50001905858517,893.5000078827143,366.50001905858517,893.5000078827143"></path><path id="kity_path_99" fill="none" stroke="rgb(115, 161, 191)" stroke-width="1" d="M326.50001905858517,1023.5000078827143C346.50001905858517,1023.5000078827143,346.50001905858517,971.5000078827143,366.50001905858517,971.5000078827143"></path><path id="kity_path_101" fill="none" stroke="rgb(115, 161, 191)" stroke-width="1" d="M411.50001905858517,971.5000078827143C431.50001905858517,971.5000078827143,431.50001905858517,945.5000078827143,451.50001905858517,945.5000078827143"></path><path id="kity_path_103" fill="none" stroke="rgb(115, 161, 191)" stroke-width="1" d="M411.50001905858517,971.5000078827143C431.50001905858517,971.5000078827143,431.50001905858517,997.5000078827143,451.50001905858517,997.5000078827143"></path><path id="kity_path_105" fill="none" stroke="rgb(115, 161, 191)" stroke-width="1" d="M326.50001905858517,1023.5000078827143C346.50001905858517,1023.5000078827143,346.50001905858517,1049.5000078827143,366.50001905858517,1049.5000078827143"></path><path id="kity_path_107" fill="none" stroke="rgb(115, 161, 191)" stroke-width="1" d="M411.50001905858517,1049.5000078827143C431.50001905858517,1049.5000078827143,431.50001905858517,1049.5000078827143,451.50001905858517,1049.5000078827143"></path><path id="kity_path_109" fill="none" stroke="rgb(115, 161, 191)" stroke-width="1" d="M326.50001905858517,1023.5000078827143C346.50001905858517,1023.5000078827143,346.50001905858517,1153.5000078827143,366.50001905858517,1153.5000078827143"></path><path id="kity_path_111" fill="none" stroke="rgb(115, 161, 191)" stroke-width="1" d="M411.50001905858517,1153.5000078827143C431.50001905858517,1153.5000078827143,431.50001905858517,1101.5000078827143,451.50001905858517,1101.5000078827143"></path><path id="kity_path_113" fill="none" stroke="rgb(115, 161, 191)" stroke-width="1" d="M411.50001905858517,1153.5000078827143C431.50001905858517,1153.5000078827143,431.50001905858517,1153.5000078827143,451.50001905858517,1153.5000078827143"></path><path id="kity_path_115" fill="none" stroke="rgb(115, 161, 191)" stroke-width="1" d="M411.50001905858517,1153.5000078827143C431.50001905858517,1153.5000078827143,431.50001905858517,1205.5000078827143,451.50001905858517,1205.5000078827143"></path><path id="kity_path_117" fill="none" stroke="rgb(115, 161, 191)" stroke-width="1" d="M116.50001905858517,1195.5000078827143A44,835,0,0,0,160.50001905858517,2030.5000078827143"></path><path id="kity_path_119" fill="none" stroke="rgb(115, 161, 191)" stroke-width="1" d="M259.50001905858517,2030.5000078827143C279.50001905858517,2030.5000078827143,279.50001905858517,1562.5000078827143,299.50001905858517,1562.5000078827143"></path><path id="kity_path_121" fill="none" stroke="rgb(115, 161, 191)" stroke-width="1" d="M389.50001905858517,1562.5000078827143C409.50001905858517,1562.5000078827143,409.50001905858517,1302.5000078827143,429.50001905858517,1302.5000078827143"></path><path id="kity_path_123" fill="none" stroke="rgb(115, 161, 191)" stroke-width="1" d="M498.50001905858517,1302.5000078827143C518.5000190585852,1302.5000078827143,518.5000190585852,1302.5000078827143,538.5000190585852,1302.5000078827143"></path><path id="kity_path_125" fill="none" stroke="rgb(115, 161, 191)" stroke-width="1" d="M389.50001905858517,1562.5000078827143C409.50001905858517,1562.5000078827143,409.50001905858517,1380.5000078827143,429.50001905858517,1380.5000078827143"></path><path id="kity_path_127" fill="none" stroke="rgb(115, 161, 191)" stroke-width="1" d="M486.50001905858517,1380.5000078827143C506.50001905858517,1380.5000078827143,506.50001905858517,1354.5000078827143,526.5000190585852,1354.5000078827143"></path><path id="kity_path_129" fill="none" stroke="rgb(115, 161, 191)" stroke-width="1" d="M486.50001905858517,1380.5000078827143C506.50001905858517,1380.5000078827143,506.50001905858517,1406.5000078827143,526.5000190585852,1406.5000078827143"></path><path id="kity_path_131" fill="none" stroke="rgb(115, 161, 191)" stroke-width="1" d="M389.50001905858517,1562.5000078827143C409.50001905858517,1562.5000078827143,409.50001905858517,1458.5000078827143,429.50001905858517,1458.5000078827143"></path><path id="kity_path_133" fill="none" stroke="rgb(115, 161, 191)" stroke-width="1" d="M510.50001905858517,1458.5000078827143C530.5000190585852,1458.5000078827143,530.5000190585852,1458.5000078827143,550.5000190585852,1458.5000078827143"></path><path id="kity_path_135" fill="none" stroke="rgb(115, 161, 191)" stroke-width="1" d="M389.50001905858517,1562.5000078827143C409.50001905858517,1562.5000078827143,409.50001905858517,1510.5000078827143,429.50001905858517,1510.5000078827143"></path><path id="kity_path_137" fill="none" stroke="rgb(115, 161, 191)" stroke-width="1" d="M485.50001905858517,1510.5000078827143C505.50001905858517,1510.5000078827143,505.50001905858517,1510.5000078827143,525.5000190585852,1510.5000078827143"></path><path id="kity_path_139" fill="none" stroke="rgb(115, 161, 191)" stroke-width="1" d="M389.50001905858517,1562.5000078827143C409.50001905858517,1562.5000078827143,409.50001905858517,1614.5000078827143,429.50001905858517,1614.5000078827143"></path><path id="kity_path_141" fill="none" stroke="rgb(115, 161, 191)" stroke-width="1" d="M486.50001905858517,1614.5000078827143C506.50001905858517,1614.5000078827143,506.50001905858517,1562.5000078827143,526.5000190585852,1562.5000078827143"></path><path id="kity_path_143" fill="none" stroke="rgb(115, 161, 191)" stroke-width="1" d="M486.50001905858517,1614.5000078827143C506.50001905858517,1614.5000078827143,506.50001905858517,1614.5000078827143,526.5000190585852,1614.5000078827143"></path><path id="kity_path_145" fill="none" stroke="rgb(115, 161, 191)" stroke-width="1" d="M486.50001905858517,1614.5000078827143C506.50001905858517,1614.5000078827143,506.50001905858517,1666.5000078827143,526.5000190585852,1666.5000078827143"></path><path id="kity_path_147" fill="none" stroke="rgb(115, 161, 191)" stroke-width="1" d="M389.50001905858517,1562.5000078827143C409.50001905858517,1562.5000078827143,409.50001905858517,1718.5000078827143,429.50001905858517,1718.5000078827143"></path><path id="kity_path_149" fill="none" stroke="rgb(115, 161, 191)" stroke-width="1" d="M486.50001905858517,1718.5000078827143C506.50001905858517,1718.5000078827143,506.50001905858517,1718.5000078827143,526.5000190585852,1718.5000078827143"></path><path id="kity_path_151" fill="none" stroke="rgb(115, 161, 191)" stroke-width="1" d="M389.50001905858517,1562.5000078827143C409.50001905858517,1562.5000078827143,409.50001905858517,1770.5000078827143,429.50001905858517,1770.5000078827143"></path><path id="kity_path_153" fill="none" stroke="rgb(115, 161, 191)" stroke-width="1" d="M486.50001905858517,1770.5000078827143C506.50001905858517,1770.5000078827143,506.50001905858517,1770.5000078827143,526.5000190585852,1770.5000078827143"></path><path id="kity_path_155" fill="none" stroke="rgb(115, 161, 191)" stroke-width="1" d="M389.50001905858517,1562.5000078827143C409.50001905858517,1562.5000078827143,409.50001905858517,1822.5000078827143,429.50001905858517,1822.5000078827143"></path><path id="kity_path_157" fill="none" stroke="rgb(115, 161, 191)" stroke-width="1" d="M486.50001905858517,1822.5000078827143C506.50001905858517,1822.5000078827143,506.50001905858517,1822.5000078827143,526.5000190585852,1822.5000078827143"></path><path id="kity_path_159" fill="none" stroke="rgb(115, 161, 191)" stroke-width="1" d="M259.50001905858517,2030.5000078827143C279.50001905858517,2030.5000078827143,279.50001905858517,2095.5000078827143,299.50001905858517,2095.5000078827143"></path><path id="kity_path_161" fill="none" stroke="rgb(115, 161, 191)" stroke-width="1" d="M383.50001905858517,2095.5000078827143C403.50001905858517,2095.5000078827143,403.50001905858517,1874.5000078827143,423.50001905858517,1874.5000078827143"></path><path id="kity_path_163" fill="none" stroke="rgb(115, 161, 191)" stroke-width="1" d="M383.50001905858517,2095.5000078827143C403.50001905858517,2095.5000078827143,403.50001905858517,1978.5000078827143,423.50001905858517,1978.5000078827143"></path><path id="kity_path_165" fill="none" stroke="rgb(115, 161, 191)" stroke-width="1" d="M503.50001905858517,1978.5000078827143C523.5000190585852,1978.5000078827143,523.5000190585852,1926.5000078827143,543.5000190585852,1926.5000078827143"></path><path id="kity_path_167" fill="none" stroke="rgb(115, 161, 191)" stroke-width="1" d="M503.50001905858517,1978.5000078827143C523.5000190585852,1978.5000078827143,523.5000190585852,1978.5000078827143,543.5000190585852,1978.5000078827143"></path><path id="kity_path_169" fill="none" stroke="rgb(115, 161, 191)" stroke-width="1" d="M503.50001905858517,1978.5000078827143C523.5000190585852,1978.5000078827143,523.5000190585852,2030.5000078827143,543.5000190585852,2030.5000078827143"></path><path id="kity_path_171" fill="none" stroke="rgb(115, 161, 191)" stroke-width="1" d="M383.50001905858517,2095.5000078827143C403.50001905858517,2095.5000078827143,403.50001905858517,2108.5000078827143,423.50001905858517,2108.5000078827143"></path><path id="kity_path_173" fill="none" stroke="rgb(115, 161, 191)" stroke-width="1" d="M479.50001905858517,2108.5000078827143C499.50001905858517,2108.5000078827143,499.50001905858517,2082.5000078827143,519.5000190585852,2082.5000078827143"></path><path id="kity_path_175" fill="none" stroke="rgb(115, 161, 191)" stroke-width="1" d="M479.50001905858517,2108.5000078827143C499.50001905858517,2108.5000078827143,499.50001905858517,2134.5000078827143,519.5000190585852,2134.5000078827143"></path><path id="kity_path_177" fill="none" stroke="rgb(115, 161, 191)" stroke-width="1" d="M383.50001905858517,2095.5000078827143C403.50001905858517,2095.5000078827143,403.50001905858517,2212.5000078827143,423.50001905858517,2212.5000078827143"></path><path id="kity_path_179" fill="none" stroke="rgb(115, 161, 191)" stroke-width="1" d="M480.50001905858517,2212.5000078827143C500.50001905858517,2212.5000078827143,500.50001905858517,2186.5000078827143,520.5000190585852,2186.5000078827143"></path><path id="kity_path_181" fill="none" stroke="rgb(115, 161, 191)" stroke-width="1" d="M480.50001905858517,2212.5000078827143C500.50001905858517,2212.5000078827143,500.50001905858517,2238.5000078827143,520.5000190585852,2238.5000078827143"></path><path id="kity_path_183" fill="none" stroke="rgb(115, 161, 191)" stroke-width="1" d="M383.50001905858517,2095.5000078827143C403.50001905858517,2095.5000078827143,403.50001905858517,2316.5000078827143,423.50001905858517,2316.5000078827143"></path><path id="kity_path_185" fill="none" stroke="rgb(115, 161, 191)" stroke-width="1" d="M480.50001905858517,2316.5000078827143C500.50001905858517,2316.5000078827143,500.50001905858517,2290.5000078827143,520.5000190585852,2290.5000078827143"></path><path id="kity_path_187" fill="none" stroke="rgb(115, 161, 191)" stroke-width="1" d="M480.50001905858517,2316.5000078827143C500.50001905858517,2316.5000078827143,500.50001905858517,2342.5000078827143,520.5000190585852,2342.5000078827143"></path><path id="kity_path_189" fill="none" stroke="rgb(115, 161, 191)" stroke-width="1" d="M259.50001905858517,2030.5000078827143C279.50001905858517,2030.5000078827143,279.50001905858517,2420.5000078827143,299.50001905858517,2420.5000078827143"></path><path id="kity_path_191" fill="none" stroke="rgb(115, 161, 191)" stroke-width="1" d="M356.50001905858517,2420.5000078827143C376.50001905858517,2420.5000078827143,376.50001905858517,2394.5000078827143,396.50001905858517,2394.5000078827143"></path><path id="kity_path_193" fill="none" stroke="rgb(115, 161, 191)" stroke-width="1" d="M356.50001905858517,2420.5000078827143C376.50001905858517,2420.5000078827143,376.50001905858517,2446.5000078827143,396.50001905858517,2446.5000078827143"></path><path id="kity_path_195" fill="none" stroke="rgb(115, 161, 191)" stroke-width="1" d="M259.50001905858517,2030.5000078827143C279.50001905858517,2030.5000078827143,279.50001905858517,2498.5000078827143,299.50001905858517,2498.5000078827143"></path><path id="kity_path_197" fill="none" stroke="rgb(115, 161, 191)" stroke-width="1" d="M368.50001905858517,2498.5000078827143C388.50001905858517,2498.5000078827143,388.50001905858517,2498.5000078827143,408.50001905858517,2498.5000078827143"></path></g><g id="minder_node1"><path id="node_outline1" fill="rgb(115, 161, 191)" stroke="rgb(57, 80, 96)" d="M25.500019058585167,1175.5000078827143h182a5,5,0,0,1,5,5v30a5,5,0,0,1,-5,5h-182a5,5,0,0,1,-5,-5v-30a5,5,0,0,1,5,-5z" stroke-width="3"></path><g id="node_text1" fill="white"><text id="kity_text_22" text-rendering="inherit" font-size="16" dy=".8em" y="1187.5000078827143" x="44.50001905858517">计算机网络体系结构</text></g></g><g id="kity_g_12"><path id="kity_path_13" fill="none" stroke="none" d="M44.50001905858517,1195.5000078827143h0v0h0z"></path></g><g id="kity_g_14"><path id="kity_path_15" fill="none" stroke="none" d="M44.50001905858517,1195.5000078827143h0v0h0z"></path><path id="kity_path_16" fill="none" stroke="none"></path></g><g id="minder_node2"><g id="node_expander32" style="cursor: pointer;"><path id="kity_path_544" fill="white" stroke="gray" d="M218.50002406537533,368.49998323619366A6,6,0,1,1,206.50002406537533,368.49998323619366A6,6,0,1,1,218.50002406537533,368.49998323619366"></path><path id="kity_path_545" fill="none" stroke="gray" d="M208.00002406537533,368.49998323619366L217.00002406537533,368.49998323619366"></path></g><path id="node_outline33" fill="rgb(238, 243, 246)" stroke="rgb(115, 161, 191)" d="M222.50002487003803,355.49998323619366h91a3,3,0,0,1,3,3v20a3,3,0,0,1,-3,3h-91a3,3,0,0,1,-3,-3v-20a3,3,0,0,1,3,-3z" stroke-width="1"></path><g id="node_text33" fill="black"><text id="kity_text_261" text-rendering="inherit" font-size="14" dy=".8em" y="361.49998323619366" x="239.50002487003803">基础概念</text></g></g><g id="minder_node3"><g id="node_expander3" style="cursor: pointer;"><path id="kity_path_457" fill="white" stroke="gray" d="M356.5000281780958,56.49997393786907A6,6,0,1,1,344.5000281780958,56.49997393786907A6,6,0,1,1,356.5000281780958,56.49997393786907"></path><path id="kity_path_458" fill="none" stroke="gray" d="M346.0000281780958,56.49997393786907L355.0000281780958,56.49997393786907"></path></g><path id="node_outline4" fill="none" stroke="none" d="M361.500028654933,45.49997393786907h35a5,5,0,0,1,5,5v12a5,5,0,0,1,-5,5h-35a5,5,0,0,1,-5,-5v-12a5,5,0,0,1,5,-5z"></path><g id="node_text4" fill="black"><text id="kity_text_203" text-rendering="inherit" font-size="12" dy=".8em" y="50.49997393786907" x="366.500028654933">概念</text></g></g><g id="minder_node4"><g id="node_expander1" display="none" style="cursor: pointer;"><path id="kity_path_451" fill="white" stroke="gray" d="M441.5000307112932,30.49997316300869A6,6,0,1,1,429.5000307112932,30.49997316300869A6,6,0,1,1,441.5000307112932,30.49997316300869"></path><path id="kity_path_452" fill="none" stroke="gray"></path></g><path id="node_outline2" fill="none" stroke="none" d="M446.5000311881304,19.49997316300869h731a5,5,0,0,1,5,5v12a5,5,0,0,1,-5,5h-731a5,5,0,0,1,-5,-5v-12a5,5,0,0,1,5,-5z"></path><g id="node_text2" fill="black"><text id="kity_text_199" text-rendering="inherit" font-size="12" dy=".8em" y="24.49997316300869" x="451.5000311881304">利用通信设备和线路将地理位置不同的、功能独立的多个计算机系统互联，以功能完善的网络软件实现网络中资源共享和信息传递的系统</text></g></g><g id="minder_node5"><g id="node_expander2" display="none" style="cursor: pointer;"><path id="kity_path_454" fill="white" stroke="gray" d="M441.5000307112932,82.49997471272945A6,6,0,1,1,429.5000307112932,82.49997471272945A6,6,0,1,1,441.5000307112932,82.49997471272945"></path><path id="kity_path_455" fill="none" stroke="gray"></path></g><path id="node_outline3" fill="none" stroke="none" d="M446.5000311881304,71.49997471272945h245a5,5,0,0,1,5,5v12a5,5,0,0,1,-5,5h-245a5,5,0,0,1,-5,-5v-12a5,5,0,0,1,5,-5z"></path><g id="node_text3" fill="black"><text id="kity_text_201" text-rendering="inherit" font-size="12" dy=".8em" y="76.49997471272945" x="451.5000311881304">三层含义：1.目的；2.组成单元；3.网络协议</text></g></g><g id="minder_node6"><g id="node_expander5" style="cursor: pointer;"><path id="kity_path_463" fill="white" stroke="gray" d="M356.5000281780958,134.49997626245022A6,6,0,1,1,344.5000281780958,134.49997626245022A6,6,0,1,1,356.5000281780958,134.49997626245022"></path><path id="kity_path_464" fill="none" stroke="gray" d="M346.0000281780958,134.49997626245022L355.0000281780958,134.49997626245022"></path></g><path id="node_outline6" fill="none" stroke="none" d="M361.500028654933,123.49997626245022h35a5,5,0,0,1,5,5v12a5,5,0,0,1,-5,5h-35a5,5,0,0,1,-5,-5v-12a5,5,0,0,1,5,-5z"></path><g id="node_text6" fill="black"><text id="kity_text_207" text-rendering="inherit" font-size="12" dy=".8em" y="128.49997626245022" x="366.500028654933">组成</text></g></g><g id="minder_node7"><g id="node_expander4" display="none" style="cursor: pointer;"><path id="kity_path_460" fill="white" stroke="gray" d="M441.5000307112932,134.49997626245022A6,6,0,1,1,429.5000307112932,134.49997626245022A6,6,0,1,1,441.5000307112932,134.49997626245022"></path><path id="kity_path_461" fill="none" stroke="gray"></path></g><path id="node_outline5" fill="none" stroke="none" d="M446.5000311881304,123.49997626245022h328a5,5,0,0,1,5,5v12a5,5,0,0,1,-5,5h-328a5,5,0,0,1,-5,-5v-12a5,5,0,0,1,5,-5z"></path><g id="node_text5" fill="black"><text id="kity_text_205" text-rendering="inherit" font-size="12" dy=".8em" y="128.49997626245022" x="451.5000311881304">资源子网（对应OSI上三层）和通信子网（对应OSI下三层）</text></g></g><g id="minder_node8"><g id="node_expander7" style="cursor: pointer;"><path id="kity_path_469" fill="white" stroke="gray" d="M356.5000281780958,186.49997781217098A6,6,0,1,1,344.5000281780958,186.49997781217098A6,6,0,1,1,356.5000281780958,186.49997781217098"></path><path id="kity_path_470" fill="none" stroke="gray" d="M346.0000281780958,186.49997781217098L355.0000281780958,186.49997781217098"></path></g><path id="node_outline8" fill="none" stroke="none" d="M361.500028654933,175.49997781217098h35a5,5,0,0,1,5,5v12a5,5,0,0,1,-5,5h-35a5,5,0,0,1,-5,-5v-12a5,5,0,0,1,5,-5z"></path><g id="node_text8" fill="black"><text id="kity_text_211" text-rendering="inherit" font-size="12" dy=".8em" y="180.49997781217098" x="366.500028654933">功能</text></g></g><g id="minder_node9"><g id="node_expander6" display="none" style="cursor: pointer;"><path id="kity_path_466" fill="white" stroke="gray" d="M441.5000307112932,186.49997781217098A6,6,0,1,1,429.5000307112932,186.49997781217098A6,6,0,1,1,441.5000307112932,186.49997781217098"></path><path id="kity_path_467" fill="none" stroke="gray"></path></g><path id="node_outline7" fill="none" stroke="none" d="M446.5000311881304,175.49997781217098h251a5,5,0,0,1,5,5v12a5,5,0,0,1,-5,5h-251a5,5,0,0,1,-5,-5v-12a5,5,0,0,1,5,-5z"></path><g id="node_text7" fill="black"><text id="kity_text_209" text-rendering="inherit" font-size="12" dy=".8em" y="180.49997781217098" x="451.5000311881304">数据通信（最基本）、资源共享、分布式处理</text></g></g><g id="minder_node10"><g id="node_expander20" style="cursor: pointer;"><path id="kity_path_508" fill="white" stroke="gray" d="M356.5000281780958,368.49998323619366A6,6,0,1,1,344.5000281780958,368.49998323619366A6,6,0,1,1,356.5000281780958,368.49998323619366"></path><path id="kity_path_509" fill="none" stroke="gray" d="M346.0000281780958,368.49998323619366L355.0000281780958,368.49998323619366"></path></g><path id="node_outline21" fill="none" stroke="none" d="M361.500028654933,357.49998323619366h35a5,5,0,0,1,5,5v12a5,5,0,0,1,-5,5h-35a5,5,0,0,1,-5,-5v-12a5,5,0,0,1,5,-5z"></path><g id="node_text21" fill="black"><text id="kity_text_237" text-rendering="inherit" font-size="12" dy=".8em" y="362.49998323619366" x="366.500028654933">分类</text></g></g><g id="minder_node11"><g id="node_expander9" style="cursor: pointer;"><path id="kity_path_475" fill="white" stroke="gray" d="M441.5000307112932,238.49997936189175A6,6,0,1,1,429.5000307112932,238.49997936189175A6,6,0,1,1,441.5000307112932,238.49997936189175"></path><path id="kity_path_476" fill="none" stroke="gray" d="M431.0000307112932,238.49997936189175L440.0000307112932,238.49997936189175"></path></g><path id="node_outline10" fill="none" stroke="none" d="M446.5000311881304,227.49997936189175h83a5,5,0,0,1,5,5v12a5,5,0,0,1,-5,5h-83a5,5,0,0,1,-5,-5v-12a5,5,0,0,1,5,-5z"></path><g id="node_text10" fill="black"><text id="kity_text_215" text-rendering="inherit" font-size="12" dy=".8em" y="232.49997936189175" x="451.5000311881304">按覆盖范围分</text></g></g><g id="minder_node12"><g id="node_expander8" display="none" style="cursor: pointer;"><path id="kity_path_472" fill="white" stroke="gray" d="M574.5000346750021,238.49997936189175A6,6,0,1,1,562.5000346750021,238.49997936189175A6,6,0,1,1,574.5000346750021,238.49997936189175"></path><path id="kity_path_473" fill="none" stroke="gray"></path></g><path id="node_outline9" fill="none" stroke="none" d="M579.5000351518393,227.49997936189175h215a5,5,0,0,1,5,5v12a5,5,0,0,1,-5,5h-215a5,5,0,0,1,-5,-5v-12a5,5,0,0,1,5,-5z"></path><g id="node_text9" fill="black"><text id="kity_text_213" text-rendering="inherit" font-size="12" dy=".8em" y="232.49997936189175" x="584.5000351518393">广域网、城域网、局域网、个人区域网</text></g></g><g id="minder_node13"><g id="node_expander11" style="cursor: pointer;"><path id="kity_path_481" fill="white" stroke="gray" d="M441.5000307112932,290.4999809116125A6,6,0,1,1,429.5000307112932,290.4999809116125A6,6,0,1,1,441.5000307112932,290.4999809116125"></path><path id="kity_path_482" fill="none" stroke="gray" d="M431.0000307112932,290.4999809116125L440.0000307112932,290.4999809116125"></path></g><path id="node_outline12" fill="none" stroke="none" d="M446.5000311881304,279.4999809116125h71a5,5,0,0,1,5,5v12a5,5,0,0,1,-5,5h-71a5,5,0,0,1,-5,-5v-12a5,5,0,0,1,5,-5z"></path><g id="node_text12" fill="black"><text id="kity_text_219" text-rendering="inherit" font-size="12" dy=".8em" y="284.4999809116125" x="451.5000311881304">按使用者分</text></g></g><g id="minder_node14"><g id="node_expander10" display="none" style="cursor: pointer;"><path id="kity_path_478" fill="white" stroke="gray" d="M562.5000343173742,290.4999809116125A6,6,0,1,1,550.5000343173742,290.4999809116125A6,6,0,1,1,562.5000343173742,290.4999809116125"></path><path id="kity_path_479" fill="none" stroke="gray"></path></g><path id="node_outline11" fill="none" stroke="none" d="M567.5000347942114,279.4999809116125h95a5,5,0,0,1,5,5v12a5,5,0,0,1,-5,5h-95a5,5,0,0,1,-5,-5v-12a5,5,0,0,1,5,-5z"></path><g id="node_text11" fill="black"><text id="kity_text_217" text-rendering="inherit" font-size="12" dy=".8em" y="284.4999809116125" x="572.5000347942114">公用网、专用网</text></g></g><g id="minder_node15"><g id="node_expander13" style="cursor: pointer;"><path id="kity_path_487" fill="white" stroke="gray" d="M441.5000307112932,342.4999824613333A6,6,0,1,1,429.5000307112932,342.4999824613333A6,6,0,1,1,441.5000307112932,342.4999824613333"></path><path id="kity_path_488" fill="none" stroke="gray" d="M431.0000307112932,342.4999824613333L440.0000307112932,342.4999824613333"></path></g><path id="node_outline14" fill="none" stroke="none" d="M446.5000311881304,331.4999824613333h83a5,5,0,0,1,5,5v12a5,5,0,0,1,-5,5h-83a5,5,0,0,1,-5,-5v-12a5,5,0,0,1,5,-5z"></path><g id="node_text14" fill="black"><text id="kity_text_223" text-rendering="inherit" font-size="12" dy=".8em" y="336.4999824613333" x="451.5000311881304">按传输技术分</text></g></g><g id="minder_node16"><g id="node_expander12" display="none" style="cursor: pointer;"><path id="kity_path_484" fill="white" stroke="gray" d="M574.5000346750021,342.4999824613333A6,6,0,1,1,562.5000346750021,342.4999824613333A6,6,0,1,1,574.5000346750021,342.4999824613333"></path><path id="kity_path_485" fill="none" stroke="gray"></path></g><path id="node_outline13" fill="none" stroke="none" d="M579.5000351518393,331.4999824613333h155a5,5,0,0,1,5,5v12a5,5,0,0,1,-5,5h-155a5,5,0,0,1,-5,-5v-12a5,5,0,0,1,5,-5z"></path><g id="node_text13" fill="black"><text id="kity_text_221" text-rendering="inherit" font-size="12" dy=".8em" y="336.4999824613333" x="584.5000351518393">广播式网络、点对点式网络</text></g></g><g id="minder_node17"><g id="node_expander15" style="cursor: pointer;"><path id="kity_path_493" fill="white" stroke="gray" d="M441.5000307112932,394.49998401105404A6,6,0,1,1,429.5000307112932,394.49998401105404A6,6,0,1,1,441.5000307112932,394.49998401105404"></path><path id="kity_path_494" fill="none" stroke="gray" d="M431.0000307112932,394.49998401105404L440.0000307112932,394.49998401105404"></path></g><path id="node_outline16" fill="none" stroke="none" d="M446.5000311881304,383.49998401105404h83a5,5,0,0,1,5,5v12a5,5,0,0,1,-5,5h-83a5,5,0,0,1,-5,-5v-12a5,5,0,0,1,5,-5z"></path><g id="node_text16" fill="black"><text id="kity_text_227" text-rendering="inherit" font-size="12" dy=".8em" y="388.49998401105404" x="451.5000311881304">按交换功能分</text></g></g><g id="minder_node18"><g id="node_expander14" display="none" style="cursor: pointer;"><path id="kity_path_490" fill="white" stroke="gray" d="M574.5000346750021,394.49998401105404A6,6,0,1,1,562.5000346750021,394.49998401105404A6,6,0,1,1,574.5000346750021,394.49998401105404"></path><path id="kity_path_491" fill="none" stroke="gray"></path></g><path id="node_outline15" fill="none" stroke="none" d="M579.5000351518393,383.49998401105404h418a5,5,0,0,1,5,5v12a5,5,0,0,1,-5,5h-418a5,5,0,0,1,-5,-5v-12a5,5,0,0,1,5,-5z"></path><g id="node_text15" fill="black"><text id="kity_text_225" text-rendering="inherit" font-size="12" dy=".8em" y="388.49998401105404" x="584.5000351518393">电路交换、报文交换、分组交换、混合交换（同时使用电路交换和分组交换）</text></g></g><g id="minder_node19"><g id="node_expander17" style="cursor: pointer;"><path id="kity_path_499" fill="white" stroke="gray" d="M441.5000307112932,446.4999855607748A6,6,0,1,1,429.5000307112932,446.4999855607748A6,6,0,1,1,441.5000307112932,446.4999855607748"></path><path id="kity_path_500" fill="none" stroke="gray" d="M431.0000307112932,446.4999855607748L440.0000307112932,446.4999855607748"></path></g><path id="node_outline18" fill="none" stroke="none" d="M446.5000311881304,435.4999855607748h83a5,5,0,0,1,5,5v12a5,5,0,0,1,-5,5h-83a5,5,0,0,1,-5,-5v-12a5,5,0,0,1,5,-5z"></path><g id="node_text18" fill="black"><text id="kity_text_231" text-rendering="inherit" font-size="12" dy=".8em" y="440.4999855607748" x="451.5000311881304">按拓扑结构分</text></g></g><g id="minder_node20"><g id="node_expander16" display="none" style="cursor: pointer;"><path id="kity_path_496" fill="white" stroke="gray" d="M574.5000346750021,446.4999855607748A6,6,0,1,1,562.5000346750021,446.4999855607748A6,6,0,1,1,574.5000346750021,446.4999855607748"></path><path id="kity_path_497" fill="none" stroke="gray"></path></g><path id="node_outline17" fill="none" stroke="none" d="M579.5000351518393,435.4999855607748h311a5,5,0,0,1,5,5v12a5,5,0,0,1,-5,5h-311a5,5,0,0,1,-5,-5v-12a5,5,0,0,1,5,-5z"></path><g id="node_text17" fill="black"><text id="kity_text_229" text-rendering="inherit" font-size="12" dy=".8em" y="440.4999855607748" x="584.5000351518393">星形、环形、总线型、不规则形网。前三者多用于局域网</text></g></g><g id="minder_node21"><g id="node_expander19" style="cursor: pointer;"><path id="kity_path_505" fill="white" stroke="gray" d="M441.5000307112932,498.49998711049557A6,6,0,1,1,429.5000307112932,498.49998711049557A6,6,0,1,1,441.5000307112932,498.49998711049557"></path><path id="kity_path_506" fill="none" stroke="gray" d="M431.0000307112932,498.49998711049557L440.0000307112932,498.49998711049557"></path></g><path id="node_outline20" fill="none" stroke="none" d="M446.5000311881304,487.49998711049557h83a5,5,0,0,1,5,5v12a5,5,0,0,1,-5,5h-83a5,5,0,0,1,-5,-5v-12a5,5,0,0,1,5,-5z"></path><g id="node_text20" fill="black"><text id="kity_text_235" text-rendering="inherit" font-size="12" dy=".8em" y="492.49998711049557" x="451.5000311881304">按传输介质分</text></g></g><g id="minder_node22"><g id="node_expander18" display="none" style="cursor: pointer;"><path id="kity_path_502" fill="white" stroke="gray" d="M574.5000346750021,498.49998711049557A6,6,0,1,1,562.5000346750021,498.49998711049557A6,6,0,1,1,574.5000346750021,498.49998711049557"></path><path id="kity_path_503" fill="none" stroke="gray"></path></g><path id="node_outline19" fill="none" stroke="none" d="M579.5000351518393,487.49998711049557h203a5,5,0,0,1,5,5v12a5,5,0,0,1,-5,5h-203a5,5,0,0,1,-5,-5v-12a5,5,0,0,1,5,-5z"></path><g id="node_text19" fill="black"><text id="kity_text_233" text-rendering="inherit" font-size="12" dy=".8em" y="492.49998711049557" x="584.5000351518393">有线网络、无线网络、混合介质网络</text></g></g><g id="minder_node23"><g id="node_expander31" style="cursor: pointer;"><path id="kity_path_541" fill="white" stroke="gray" d="M356.5000281780958,680.4999925345182A6,6,0,1,1,344.5000281780958,680.4999925345182A6,6,0,1,1,356.5000281780958,680.4999925345182"></path><path id="kity_path_542" fill="none" stroke="gray" d="M346.0000281780958,680.4999925345182L355.0000281780958,680.4999925345182"></path></g><path id="node_outline32" fill="none" stroke="none" d="M361.500028654933,669.4999925345182h59a5,5,0,0,1,5,5v12a5,5,0,0,1,-5,5h-59a5,5,0,0,1,-5,-5v-12a5,5,0,0,1,5,-5z"></path><g id="node_text32" fill="black"><text id="kity_text_259" text-rendering="inherit" font-size="12" dy=".8em" y="674.4999925345182" x="366.500028654933">性能标准</text></g></g><g id="minder_node24"><g id="node_expander22" style="cursor: pointer;"><path id="kity_path_514" fill="white" stroke="gray" d="M465.50003142654896,550.4999886602163A6,6,0,1,1,453.50003142654896,550.4999886602163A6,6,0,1,1,465.50003142654896,550.4999886602163"></path><path id="kity_path_515" fill="none" stroke="gray" d="M455.00003142654896,550.4999886602163L464.00003142654896,550.4999886602163"></path></g><path id="node_outline23" fill="none" stroke="none" d="M470.5000319033861,539.4999886602163h35a5,5,0,0,1,5,5v12a5,5,0,0,1,-5,5h-35a5,5,0,0,1,-5,-5v-12a5,5,0,0,1,5,-5z"></path><g id="node_text23" fill="#ff0000"><text id="kity_text_241" text-rendering="inherit" font-size="12" dy=".8em" y="544.4999886602163" x="475.5000319033861">带宽</text></g></g><g id="minder_node25"><g id="node_expander21" display="none" style="cursor: pointer;"><path id="kity_path_511" fill="white" stroke="gray" d="M550.5000339597464,550.4999886602163A6,6,0,1,1,538.5000339597464,550.4999886602163A6,6,0,1,1,550.5000339597464,550.4999886602163"></path><path id="kity_path_512" fill="none" stroke="gray"></path></g><path id="node_outline22" fill="none" stroke="none" d="M555.5000344365835,539.4999886602163h204a5,5,0,0,1,5,5v12a5,5,0,0,1,-5,5h-204a5,5,0,0,1,-5,-5v-12a5,5,0,0,1,5,-5z"></path><g id="node_text22" fill="black"><text id="kity_text_239" text-rendering="inherit" font-size="12" dy=".8em" y="544.4999886602163" x="560.5000344365835">数字信道能传输的“最大数据率”, bit/s</text></g></g><g id="minder_node26"><g id="node_expander25" style="cursor: pointer;"><path id="kity_path_523" fill="white" stroke="gray" d="M465.50003142654896,628.4999909847975A6,6,0,1,1,453.50003142654896,628.4999909847975A6,6,0,1,1,465.50003142654896,628.4999909847975"></path><path id="kity_path_524" fill="none" stroke="gray" d="M455.00003142654896,628.4999909847975L464.00003142654896,628.4999909847975"></path></g><path id="node_outline26" fill="none" stroke="none" d="M470.5000319033861,617.4999909847975h35a5,5,0,0,1,5,5v12a5,5,0,0,1,-5,5h-35a5,5,0,0,1,-5,-5v-12a5,5,0,0,1,5,-5z"></path><g id="node_text26" fill="#ff0000"><text id="kity_text_247" text-rendering="inherit" font-size="12" dy=".8em" y="622.4999909847975" x="475.5000319033861">时延</text></g></g><g id="minder_node27"><g id="node_expander23" display="none" style="cursor: pointer;"><path id="kity_path_517" fill="white" stroke="gray" d="M550.5000339597464,602.4999902099371A6,6,0,1,1,538.5000339597464,602.4999902099371A6,6,0,1,1,550.5000339597464,602.4999902099371"></path><path id="kity_path_518" fill="none" stroke="gray"></path></g><path id="node_outline24" fill="none" stroke="none" d="M555.5000344365835,591.4999902099371h546a5,5,0,0,1,5,5v12a5,5,0,0,1,-5,5h-546a5,5,0,0,1,-5,-5v-12a5,5,0,0,1,5,-5z"></path><g id="node_text24" fill="black"><text id="kity_text_243" text-rendering="inherit" font-size="12" dy=".8em" y="596.4999902099371" x="560.5000344365835">一个报文或分组从网络一端到另一端的总时间。总时延 = 发送时延 + 传播时延 + 处理时延 + 排队时延</text></g></g><g id="minder_node28"><g id="node_expander24" display="none" style="cursor: pointer;"><path id="kity_path_520" fill="white" stroke="gray" d="M550.5000339597464,654.4999917596579A6,6,0,1,1,538.5000339597464,654.4999917596579A6,6,0,1,1,550.5000339597464,654.4999917596579"></path><path id="kity_path_521" fill="none" stroke="gray"></path></g><path id="node_outline25" fill="none" stroke="none" d="M555.5000344365835,643.4999917596579h469a5,5,0,0,1,5,5v12a5,5,0,0,1,-5,5h-469a5,5,0,0,1,-5,-5v-12a5,5,0,0,1,5,-5z"></path><g id="node_text25" fill="black"><text id="kity_text_245" text-rendering="inherit" font-size="12" dy=".8em" y="648.4999917596579" x="560.5000344365835">发送时延 = 数据块长度 / 信道宽度； 传播时延 = 信道长度 / 电磁波在信道上的传播速率</text></g></g><g id="minder_node29"><g id="node_expander26" display="none" style="cursor: pointer;"><path id="kity_path_526" fill="white" stroke="gray" d="M465.50003142654896,706.4999933093786A6,6,0,1,1,453.50003142654896,706.4999933093786A6,6,0,1,1,465.50003142654896,706.4999933093786"></path><path id="kity_path_527" fill="none" stroke="gray"></path></g><path id="node_outline27" fill="none" stroke="none" d="M470.5000319033861,695.4999933093786h106a5,5,0,0,1,5,5v12a5,5,0,0,1,-5,5h-106a5,5,0,0,1,-5,-5v-12a5,5,0,0,1,5,-5z"></path><g id="node_text27" fill="black"><text id="kity_text_249" text-rendering="inherit" font-size="12" dy=".8em" y="700.4999933093786" x="475.5000319033861">往返时延（RTT）</text></g></g><g id="minder_node30"><g id="node_expander28" style="cursor: pointer;"><path id="kity_path_532" fill="white" stroke="gray" d="M465.50003142654896,758.4999948590994A6,6,0,1,1,453.50003142654896,758.4999948590994A6,6,0,1,1,465.50003142654896,758.4999948590994"></path><path id="kity_path_533" fill="none" stroke="gray" d="M455.00003142654896,758.4999948590994L464.00003142654896,758.4999948590994"></path></g><path id="node_outline29" fill="none" stroke="none" d="M470.5000319033861,747.4999948590994h47a5,5,0,0,1,5,5v12a5,5,0,0,1,-5,5h-47a5,5,0,0,1,-5,-5v-12a5,5,0,0,1,5,-5z"></path><g id="node_text29" fill="black"><text id="kity_text_253" text-rendering="inherit" font-size="12" dy=".8em" y="752.4999948590994" x="475.5000319033861">吞吐量</text></g></g><g id="minder_node31"><g id="node_expander27" display="none" style="cursor: pointer;"><path id="kity_path_529" fill="white" stroke="gray" d="M562.5000343173742,758.4999948590994A6,6,0,1,1,550.5000343173742,758.4999948590994A6,6,0,1,1,562.5000343173742,758.4999948590994"></path><path id="kity_path_530" fill="none" stroke="gray"></path></g><path id="node_outline28" fill="none" stroke="none" d="M567.5000347942114,747.4999948590994h251a5,5,0,0,1,5,5v12a5,5,0,0,1,-5,5h-251a5,5,0,0,1,-5,-5v-12a5,5,0,0,1,5,-5z"></path><g id="node_text28" fill="black"><text id="kity_text_251" text-rendering="inherit" font-size="12" dy=".8em" y="752.4999948590994" x="572.5000347942114">单位时间通过某个网络、信道或接口的数据量</text></g></g><g id="minder_node32"><g id="node_expander30" style="cursor: pointer;"><path id="kity_path_538" fill="white" stroke="gray" d="M465.50003142654896,810.4999964088202A6,6,0,1,1,453.50003142654896,810.4999964088202A6,6,0,1,1,465.50003142654896,810.4999964088202"></path><path id="kity_path_539" fill="none" stroke="gray" d="M455.00003142654896,810.4999964088202L464.00003142654896,810.4999964088202"></path></g><path id="node_outline31" fill="none" stroke="none" d="M470.5000319033861,799.4999964088202h35a5,5,0,0,1,5,5v12a5,5,0,0,1,-5,5h-35a5,5,0,0,1,-5,-5v-12a5,5,0,0,1,5,-5z"></path><g id="node_text31" fill="black"><text id="kity_text_257" text-rendering="inherit" font-size="12" dy=".8em" y="804.4999964088202" x="475.5000319033861">速率</text></g></g><g id="minder_node33"><g id="node_expander29" display="none" style="cursor: pointer;"><path id="kity_path_535" fill="white" stroke="gray" d="M550.5000339597464,810.4999964088202A6,6,0,1,1,538.5000339597464,810.4999964088202A6,6,0,1,1,550.5000339597464,810.4999964088202"></path><path id="kity_path_536" fill="none" stroke="gray"></path></g><path id="node_outline30" fill="none" stroke="none" d="M555.5000344365835,799.4999964088202h402a5,5,0,0,1,5,5v12a5,5,0,0,1,-5,5h-402a5,5,0,0,1,-5,-5v-12a5,5,0,0,1,5,-5z"></path><g id="node_text30" fill="black"><text id="kity_text_255" text-rendering="inherit" font-size="12" dy=".8em" y="804.4999964088202" x="560.5000344365835">又称数据率、比特率，指在信道上传送数据的速率， 单位bit/s（b/s, bps）</text></g></g><g id="minder_node34"><g id="node_expander43" style="cursor: pointer;"><path id="kity_path_577" fill="white" stroke="gray" d="M228.50002436339855,1023.5000027567148A6,6,0,1,1,216.50002436339855,1023.5000027567148A6,6,0,1,1,228.50002436339855,1023.5000027567148"></path><path id="kity_path_578" fill="none" stroke="gray" d="M218.00002436339855,1023.5000027567148L227.00002436339855,1023.5000027567148"></path></g><path id="node_outline44" fill="rgb(238, 243, 246)" stroke="rgb(115, 161, 191)" d="M232.50002516806126,1010.5000027567148h91a3,3,0,0,1,3,3v20a3,3,0,0,1,-3,3h-91a3,3,0,0,1,-3,-3v-20a3,3,0,0,1,3,-3z" stroke-width="1"></path><g id="node_text44" fill="black"><text id="kity_text_283" text-rendering="inherit" font-size="14" dy=".8em" y="1016.5000027567148" x="249.50002516806126">体系结构</text></g></g><g id="minder_node35"><g id="node_expander33" display="none" style="cursor: pointer;"><path id="kity_path_547" fill="white" stroke="gray" d="M366.50002847611904,893.4999988824129A6,6,0,1,1,354.50002847611904,893.4999988824129A6,6,0,1,1,366.50002847611904,893.4999988824129"></path><path id="kity_path_548" fill="none" stroke="gray"></path></g><path id="node_outline34" fill="none" stroke="none" d="M371.5000289529562,882.4999988824129h59a5,5,0,0,1,5,5v12a5,5,0,0,1,-5,5h-59a5,5,0,0,1,-5,-5v-12a5,5,0,0,1,5,-5z"></path><g id="node_text34" fill="black"><text id="kity_text_263" text-rendering="inherit" font-size="12" dy=".8em" y="887.4999988824129" x="376.5000289529562">分层结构</text></g></g><g id="minder_node36"><g id="node_expander36" style="cursor: pointer;"><path id="kity_path_556" fill="white" stroke="gray" d="M366.50002847611904,971.500001206994A6,6,0,1,1,354.50002847611904,971.500001206994A6,6,0,1,1,366.50002847611904,971.500001206994"></path><path id="kity_path_557" fill="none" stroke="gray" d="M356.00002847611904,971.500001206994L365.00002847611904,971.500001206994"></path></g><path id="node_outline37" fill="none" stroke="none" d="M371.5000289529562,960.500001206994h35a5,5,0,0,1,5,5v12a5,5,0,0,1,-5,5h-35a5,5,0,0,1,-5,-5v-12a5,5,0,0,1,5,-5z"></path><g id="node_text37" fill="black"><text id="kity_text_269" text-rendering="inherit" font-size="12" dy=".8em" y="965.500001206994" x="376.5000289529562">协议</text></g></g><g id="minder_node37"><g id="node_expander34" display="none" style="cursor: pointer;"><path id="kity_path_550" fill="white" stroke="gray" d="M451.50003100931644,945.5000004321337A6,6,0,1,1,439.50003100931644,945.5000004321337A6,6,0,1,1,451.50003100931644,945.5000004321337"></path><path id="kity_path_551" fill="none" stroke="gray"></path></g><path id="node_outline35" fill="none" stroke="none" d="M456.5000314861536,934.5000004321337h893a5,5,0,0,1,5,5v12a5,5,0,0,1,-5,5h-893a5,5,0,0,1,-5,-5v-12a5,5,0,0,1,5,-5z"></path><g id="node_text35" fill="black"><text id="kity_text_265" text-rendering="inherit" font-size="12" dy=".8em" y="939.5000004321337" x="461.5000314861536">一个协议有三要素：语法、语义、同步。语法指数据与控制信息的结构格式； 语义指需发出何种控制信息完成何种动作以及做出何种应答； 同步指事件实现顺序的说明</text></g></g><g id="minder_node38"><g id="node_expander35" display="none" style="cursor: pointer;"><path id="kity_path_553" fill="white" stroke="gray" d="M451.50003100931644,997.5000019818544A6,6,0,1,1,439.50003100931644,997.5000019818544A6,6,0,1,1,451.50003100931644,997.5000019818544"></path><path id="kity_path_554" fill="none" stroke="gray"></path></g><path id="node_outline36" fill="none" stroke="none" d="M456.5000314861536,986.5000019818544h299a5,5,0,0,1,5,5v12a5,5,0,0,1,-5,5h-299a5,5,0,0,1,-5,-5v-12a5,5,0,0,1,5,-5z"></path><g id="node_text36" fill="black"><text id="kity_text_267" text-rendering="inherit" font-size="12" dy=".8em" y="991.5000019818544" x="461.5000314861536">实体：用来表示任何可以发送或接收的硬件或软件进程</text></g></g><g id="minder_node39"><g id="node_expander38" style="cursor: pointer;"><path id="kity_path_562" fill="white" stroke="gray" d="M366.50002847611904,1049.5000035315752A6,6,0,1,1,354.50002847611904,1049.5000035315752A6,6,0,1,1,366.50002847611904,1049.5000035315752"></path><path id="kity_path_563" fill="none" stroke="gray" d="M356.00002847611904,1049.5000035315752L365.00002847611904,1049.5000035315752"></path></g><path id="node_outline39" fill="none" stroke="none" d="M371.5000289529562,1038.5000035315752h35a5,5,0,0,1,5,5v12a5,5,0,0,1,-5,5h-35a5,5,0,0,1,-5,-5v-12a5,5,0,0,1,5,-5z"></path><g id="node_text39" fill="black"><text id="kity_text_273" text-rendering="inherit" font-size="12" dy=".8em" y="1043.5000035315752" x="376.5000289529562">接口</text></g></g><g id="minder_node40"><g id="node_expander37" display="none" style="cursor: pointer;"><path id="kity_path_559" fill="white" stroke="gray" d="M451.50003100931644,1049.5000035315752A6,6,0,1,1,439.50003100931644,1049.5000035315752A6,6,0,1,1,451.50003100931644,1049.5000035315752"></path><path id="kity_path_560" fill="none" stroke="gray"></path></g><path id="node_outline38" fill="none" stroke="none" d="M456.5000314861536,1038.5000035315752h370a5,5,0,0,1,5,5v12a5,5,0,0,1,-5,5h-370a5,5,0,0,1,-5,-5v-12a5,5,0,0,1,5,-5z"></path><g id="node_text38" fill="black"><text id="kity_text_271" text-rendering="inherit" font-size="12" dy=".8em" y="1043.5000035315752" x="461.5000314861536">同一节点内相邻两层间交换信息的连接点。又称服务访问点（SAP）</text></g></g><g id="minder_node41"><g id="node_expander42" style="cursor: pointer;"><path id="kity_path_574" fill="white" stroke="gray" d="M366.50002847611904,1153.5000066310167A6,6,0,1,1,354.50002847611904,1153.5000066310167A6,6,0,1,1,366.50002847611904,1153.5000066310167"></path><path id="kity_path_575" fill="none" stroke="gray" d="M356.00002847611904,1153.5000066310167L365.00002847611904,1153.5000066310167"></path></g><path id="node_outline43" fill="none" stroke="none" d="M371.5000289529562,1142.5000066310167h35a5,5,0,0,1,5,5v12a5,5,0,0,1,-5,5h-35a5,5,0,0,1,-5,-5v-12a5,5,0,0,1,5,-5z"></path><g id="node_text43" fill="black"><text id="kity_text_281" text-rendering="inherit" font-size="12" dy=".8em" y="1147.5000066310167" x="376.5000289529562">服务</text></g></g><g id="minder_node42"><g id="node_expander39" display="none" style="cursor: pointer;"><path id="kity_path_565" fill="white" stroke="gray" d="M451.50003100931644,1101.500005081296A6,6,0,1,1,439.50003100931644,1101.500005081296A6,6,0,1,1,451.50003100931644,1101.500005081296"></path><path id="kity_path_566" fill="none" stroke="gray"></path></g><path id="node_outline40" fill="none" stroke="none" d="M456.5000314861536,1090.500005081296h423a5,5,0,0,1,5,5v12a5,5,0,0,1,-5,5h-423a5,5,0,0,1,-5,-5v-12a5,5,0,0,1,5,-5z"></path><g id="node_text40" fill="black"><text id="kity_text_275" text-rendering="inherit" font-size="12" dy=".8em" y="1095.500005081296" x="461.5000314861536">服务指下层为相邻的上层提供的功能调用。服务是“垂直的”，而协议是“水平的”</text></g></g><g id="minder_node43"><g id="node_expander40" display="none" style="cursor: pointer;"><path id="kity_path_568" fill="white" stroke="gray" d="M451.50003100931644,1153.5000066310167A6,6,0,1,1,439.50003100931644,1153.5000066310167A6,6,0,1,1,451.50003100931644,1153.5000066310167"></path><path id="kity_path_569" fill="none" stroke="gray"></path></g><path id="node_outline41" fill="none" stroke="none" d="M456.5000314861536,1142.5000066310167h251a5,5,0,0,1,5,5v12a5,5,0,0,1,-5,5h-251a5,5,0,0,1,-5,-5v-12a5,5,0,0,1,5,-5z"></path><g id="node_text41" fill="black"><text id="kity_text_277" text-rendering="inherit" font-size="12" dy=".8em" y="1147.5000066310167" x="461.5000314861536">本层的服务用户只能看见下层的服务而非协议</text></g></g><g id="minder_node44"><g id="node_expander41" display="none" style="cursor: pointer;"><path id="kity_path_571" fill="white" stroke="gray" d="M451.50003100931644,1205.5000081807375A6,6,0,1,1,439.50003100931644,1205.5000081807375A6,6,0,1,1,451.50003100931644,1205.5000081807375"></path><path id="kity_path_572" fill="none" stroke="gray"></path></g><path id="node_outline42" fill="none" stroke="none" d="M456.5000314861536,1194.5000081807375h203a5,5,0,0,1,5,5v12a5,5,0,0,1,-5,5h-203a5,5,0,0,1,-5,-5v-12a5,5,0,0,1,5,-5z"></path><g id="node_text42" fill="black"><text id="kity_text_279" text-rendering="inherit" font-size="12" dy=".8em" y="1199.5000081807375" x="461.5000314861536">分为面向连接服务和无连接服务两种</text></g></g><g id="minder_node45"><g id="node_expander84" style="cursor: pointer;"><path id="kity_path_700" fill="white" stroke="gray" d="M161.50002236664295,2030.5000327676535A6,6,0,1,1,149.50002236664295,2030.5000327676535A6,6,0,1,1,161.50002236664295,2030.5000327676535"></path><path id="kity_path_701" fill="none" stroke="gray" d="M151.00002236664295,2030.5000327676535L160.00002236664295,2030.5000327676535"></path></g><path id="node_outline85" fill="rgb(238, 243, 246)" stroke="rgb(115, 161, 191)" d="M165.50002317130566,2017.5000327676535h91a3,3,0,0,1,3,3v20a3,3,0,0,1,-3,3h-91a3,3,0,0,1,-3,-3v-20a3,3,0,0,1,3,-3z" stroke-width="1"></path><g id="node_text85" fill="black"><text id="kity_text_365" text-rendering="inherit" font-size="14" dy=".8em" y="2023.5000327676535" x="182.50002317130566">参考模型</text></g></g><g id="minder_node46"><g id="node_expander63" style="cursor: pointer;"><path id="kity_path_637" fill="white" stroke="gray" d="M299.50002647936344,1562.5000188201666A6,6,0,1,1,287.50002647936344,1562.5000188201666A6,6,0,1,1,299.50002647936344,1562.5000188201666"></path><path id="kity_path_638" fill="none" stroke="gray" d="M289.00002647936344,1562.5000188201666L298.00002647936344,1562.5000188201666"></path></g><path id="node_outline64" fill="none" stroke="none" d="M304.5000269562006,1551.5000188201666h80a5,5,0,0,1,5,5v12a5,5,0,0,1,-5,5h-80a5,5,0,0,1,-5,-5v-12a5,5,0,0,1,5,-5z"></path><g id="node_text64" fill="black"><text id="kity_text_323" text-rendering="inherit" font-size="12" dy=".8em" y="1556.5000188201666" x="309.5000269562006">OSI参考模型</text></g></g><g id="minder_node47"><g id="node_expander45" style="cursor: pointer;"><path id="kity_path_583" fill="white" stroke="gray" d="M429.50003035366535,1302.5000110715628A6,6,0,1,1,417.50003035366535,1302.5000110715628A6,6,0,1,1,429.50003035366535,1302.5000110715628"></path><path id="kity_path_584" fill="none" stroke="gray" d="M419.00003035366535,1302.5000110715628L428.00003035366535,1302.5000110715628"></path></g><path id="node_outline46" fill="none" stroke="none" d="M434.5000308305025,1291.5000110715628h59a5,5,0,0,1,5,5v12a5,5,0,0,1,-5,5h-59a5,5,0,0,1,-5,-5v-12a5,5,0,0,1,5,-5z"></path><g id="node_text46" fill="black"><text id="kity_text_287" text-rendering="inherit" font-size="12" dy=".8em" y="1296.5000110715628" x="439.5000308305025">记忆口诀</text></g></g><g id="minder_node48"><g id="node_expander44" display="none" style="cursor: pointer;"><path id="kity_path_580" fill="white" stroke="gray" d="M538.5000336021185,1302.5000110715628A6,6,0,1,1,526.5000336021185,1302.5000110715628A6,6,0,1,1,538.5000336021185,1302.5000110715628"></path><path id="kity_path_581" fill="none" stroke="gray"></path></g><path id="node_outline45" fill="none" stroke="none" d="M543.5000340789557,1291.5000110715628h95a5,5,0,0,1,5,5v12a5,5,0,0,1,-5,5h-95a5,5,0,0,1,-5,-5v-12a5,5,0,0,1,5,-5z"></path><g id="node_text45" fill="#ff0000"><text id="kity_text_285" text-rendering="inherit" font-size="12" dy=".8em" y="1296.5000110715628" x="548.5000340789557">物数网传会表应</text></g></g><g id="minder_node49"><g id="node_expander48" style="cursor: pointer;"><path id="kity_path_592" fill="white" stroke="gray" d="M429.50003035366535,1380.500013396144A6,6,0,1,1,417.50003035366535,1380.500013396144A6,6,0,1,1,429.50003035366535,1380.500013396144"></path><path id="kity_path_593" fill="none" stroke="gray" d="M419.00003035366535,1380.500013396144L428.00003035366535,1380.500013396144"></path></g><path id="node_outline49" fill="none" stroke="none" d="M434.5000308305025,1369.500013396144h47a5,5,0,0,1,5,5v12a5,5,0,0,1,-5,5h-47a5,5,0,0,1,-5,-5v-12a5,5,0,0,1,5,-5z"></path><g id="node_text49" fill="black"><text id="kity_text_293" text-rendering="inherit" font-size="12" dy=".8em" y="1374.500013396144" x="439.5000308305025">物理层</text></g></g><g id="minder_node50"><g id="node_expander46" display="none" style="cursor: pointer;"><path id="kity_path_586" fill="white" stroke="gray" d="M526.5000332444906,1354.5000126212835A6,6,0,1,1,514.5000332444906,1354.5000126212835A6,6,0,1,1,526.5000332444906,1354.5000126212835"></path><path id="kity_path_587" fill="none" stroke="gray"></path></g><path id="node_outline47" fill="none" stroke="none" d="M531.5000337213278,1343.5000126212835h809a5,5,0,0,1,5,5v12a5,5,0,0,1,-5,5h-809a5,5,0,0,1,-5,-5v-12a5,5,0,0,1,5,-5z"></path><g id="node_text47" fill="black"><text id="kity_text_289" text-rendering="inherit" font-size="12" dy=".8em" y="1348.5000126212835" x="536.5000337213278">规定了建立、维持、断开通信端之间的机械、电气、功能、过程特性。物理层标准有：RS232、RJ-45等。 物理媒体在物理层标准之下，也被称作第0层</text></g></g><g id="minder_node51"><g id="node_expander47" display="none" style="cursor: pointer;"><path id="kity_path_589" fill="white" stroke="gray" d="M526.5000332444906,1406.5000141710043A6,6,0,1,1,514.5000332444906,1406.5000141710043A6,6,0,1,1,526.5000332444906,1406.5000141710043"></path><path id="kity_path_590" fill="none" stroke="gray"></path></g><path id="node_outline48" fill="none" stroke="none" d="M531.5000337213278,1395.5000141710043h443a5,5,0,0,1,5,5v12a5,5,0,0,1,-5,5h-443a5,5,0,0,1,-5,-5v-12a5,5,0,0,1,5,-5z"></path><g id="node_text48" fill="black"><text id="kity_text_291" text-rendering="inherit" font-size="12" dy=".8em" y="1400.5000141710043" x="536.5000337213278">物理层的标准就是将物理媒介的特性描述出来，使得软件能够和硬件进行互相操作</text></g></g><g id="minder_node52"><g id="node_expander50" style="cursor: pointer;"><path id="kity_path_598" fill="white" stroke="gray" d="M429.50003035366535,1458.500015720725A6,6,0,1,1,417.50003035366535,1458.500015720725A6,6,0,1,1,429.50003035366535,1458.500015720725"></path><path id="kity_path_599" fill="none" stroke="gray" d="M419.00003035366535,1458.500015720725L428.00003035366535,1458.500015720725"></path></g><path id="node_outline51" fill="none" stroke="none" d="M434.5000308305025,1447.500015720725h71a5,5,0,0,1,5,5v12a5,5,0,0,1,-5,5h-71a5,5,0,0,1,-5,-5v-12a5,5,0,0,1,5,-5z"></path><g id="node_text51" fill="black"><text id="kity_text_297" text-rendering="inherit" font-size="12" dy=".8em" y="1452.500015720725" x="439.5000308305025">数据链路层</text></g></g><g id="minder_node53"><g id="node_expander49" display="none" style="cursor: pointer;"><path id="kity_path_595" fill="white" stroke="gray" d="M550.5000339597464,1458.500015720725A6,6,0,1,1,538.5000339597464,1458.500015720725A6,6,0,1,1,550.5000339597464,1458.500015720725"></path><path id="kity_path_596" fill="none" stroke="gray"></path></g><path id="node_outline50" fill="none" stroke="none" d="M555.5000344365835,1447.500015720725h862a5,5,0,0,1,5,5v12a5,5,0,0,1,-5,5h-862a5,5,0,0,1,-5,-5v-12a5,5,0,0,1,5,-5z"></path><g id="node_text50" fill="black"><text id="kity_text_295" text-rendering="inherit" font-size="12" dy=".8em" y="1452.500015720725" x="560.5000344365835">在不可靠物理介质上提供可靠传输。作用包括：物理地址寻址、数据封装成帧、流量控制、数据检错、重发等。 协议有：SDLC、HDLC、PPP、STP、帧中继 等</text></g></g><g id="minder_node54"><g id="node_expander52" style="cursor: pointer;"><path id="kity_path_604" fill="white" stroke="gray" d="M429.50003035366535,1510.5000172704458A6,6,0,1,1,417.50003035366535,1510.5000172704458A6,6,0,1,1,429.50003035366535,1510.5000172704458"></path><path id="kity_path_605" fill="none" stroke="gray" d="M419.00003035366535,1510.5000172704458L428.00003035366535,1510.5000172704458"></path></g><path id="node_outline53" fill="none" stroke="none" d="M434.5000308305025,1499.5000172704458h46a5,5,0,0,1,5,5v12a5,5,0,0,1,-5,5h-46a5,5,0,0,1,-5,-5v-12a5,5,0,0,1,5,-5z"></path><g id="node_text53" fill="black"><text id="kity_text_301" text-rendering="inherit" font-size="12" dy=".8em" y="1504.5000172704458" x="439.5000308305025">网络层</text></g></g><g id="minder_node55"><g id="node_expander51" display="none" style="cursor: pointer;"><path id="kity_path_601" fill="white" stroke="gray" d="M525.5000332146883,1510.5000172704458A6,6,0,1,1,513.5000332146883,1510.5000172704458A6,6,0,1,1,525.5000332146883,1510.5000172704458"></path><path id="kity_path_602" fill="none" stroke="gray"></path></g><path id="node_outline52" fill="none" stroke="none" d="M530.5000336915255,1499.5000172704458h864a5,5,0,0,1,5,5v12a5,5,0,0,1,-5,5h-864a5,5,0,0,1,-5,-5v-12a5,5,0,0,1,5,-5z"></path><g id="node_text52" fill="black"><text id="kity_text_299" text-rendering="inherit" font-size="12" dy=".8em" y="1504.5000172704458" x="535.5000336915255">负责对数据包进行路由选择和存储转发。并实现流量控制、拥塞控制、差错控制和网际互连等功能。协议有：IP、IPX、ICMP、IGMP、ARP、RARP、OSPF等。</text></g></g><g id="minder_node56"><g id="node_expander56" style="cursor: pointer;"><path id="kity_path_616" fill="white" stroke="gray" d="M429.50003035366535,1614.5000203698874A6,6,0,1,1,417.50003035366535,1614.5000203698874A6,6,0,1,1,429.50003035366535,1614.5000203698874"></path><path id="kity_path_617" fill="none" stroke="gray" d="M419.00003035366535,1614.5000203698874L428.00003035366535,1614.5000203698874"></path></g><path id="node_outline57" fill="none" stroke="none" d="M434.5000308305025,1603.5000203698874h47a5,5,0,0,1,5,5v12a5,5,0,0,1,-5,5h-47a5,5,0,0,1,-5,-5v-12a5,5,0,0,1,5,-5z"></path><g id="node_text57" fill="black"><text id="kity_text_309" text-rendering="inherit" font-size="12" dy=".8em" y="1608.5000203698874" x="439.5000308305025">传输层</text></g></g><g id="minder_node57"><g id="node_expander53" display="none" style="cursor: pointer;"><path id="kity_path_607" fill="white" stroke="gray" d="M526.5000332444906,1562.5000188201666A6,6,0,1,1,514.5000332444906,1562.5000188201666A6,6,0,1,1,526.5000332444906,1562.5000188201666"></path><path id="kity_path_608" fill="none" stroke="gray"></path></g><path id="node_outline54" fill="none" stroke="none" d="M531.5000337213278,1551.5000188201666h599a5,5,0,0,1,5,5v12a5,5,0,0,1,-5,5h-599a5,5,0,0,1,-5,-5v-12a5,5,0,0,1,5,-5z"></path><g id="node_text54" fill="#ff0000"><text id="kity_text_303" text-rendering="inherit" font-size="12" dy=".8em" y="1556.5000188201666" x="536.5000337213278">传输层是第一个端到端（进程到进程）的层次。因为主机可以运行多个进程，所以传输层有复用和分用的功能。</text></g></g><g id="minder_node58"><g id="node_expander54" display="none" style="cursor: pointer;"><path id="kity_path_610" fill="white" stroke="gray" d="M526.5000332444906,1614.5000203698874A6,6,0,1,1,514.5000332444906,1614.5000203698874A6,6,0,1,1,526.5000332444906,1614.5000203698874"></path><path id="kity_path_611" fill="none" stroke="gray"></path></g><path id="node_outline55" fill="none" stroke="none" d="M531.5000337213278,1603.5000203698874h623a5,5,0,0,1,5,5v12a5,5,0,0,1,-5,5h-623a5,5,0,0,1,-5,-5v-12a5,5,0,0,1,5,-5z"></path><g id="node_text55" fill="black"><text id="kity_text_305" text-rendering="inherit" font-size="12" dy=".8em" y="1608.5000203698874" x="536.5000337213278">传输层负责将上层数据分段，并提供端到端的、可靠或不可靠的传输。还要处理端到端的差错控制和流量控制问题。</text></g></g><g id="minder_node59"><g id="node_expander55" display="none" style="cursor: pointer;"><path id="kity_path_613" fill="white" stroke="gray" d="M526.5000332444906,1666.5000219196081A6,6,0,1,1,514.5000332444906,1666.5000219196081A6,6,0,1,1,526.5000332444906,1666.5000219196081"></path><path id="kity_path_614" fill="none" stroke="gray"></path></g><path id="node_outline56" fill="none" stroke="none" d="M531.5000337213278,1655.5000219196081h177a5,5,0,0,1,5,5v12a5,5,0,0,1,-5,5h-177a5,5,0,0,1,-5,-5v-12a5,5,0,0,1,5,-5z"></path><g id="node_text56" fill="black"><text id="kity_text_307" text-rendering="inherit" font-size="12" dy=".8em" y="1660.5000219196081" x="536.5000337213278">协议有：TCP、UDP、SCTP等</text></g></g><g id="minder_node60"><g id="node_expander58" style="cursor: pointer;"><path id="kity_path_622" fill="white" stroke="gray" d="M429.50003035366535,1718.5000234693289A6,6,0,1,1,417.50003035366535,1718.5000234693289A6,6,0,1,1,429.50003035366535,1718.5000234693289"></path><path id="kity_path_623" fill="none" stroke="gray" d="M419.00003035366535,1718.5000234693289L428.00003035366535,1718.5000234693289"></path></g><path id="node_outline59" fill="none" stroke="none" d="M434.5000308305025,1707.5000234693289h47a5,5,0,0,1,5,5v12a5,5,0,0,1,-5,5h-47a5,5,0,0,1,-5,-5v-12a5,5,0,0,1,5,-5z"></path><g id="node_text59" fill="black"><text id="kity_text_313" text-rendering="inherit" font-size="12" dy=".8em" y="1712.5000234693289" x="439.5000308305025">会话层</text></g></g><g id="minder_node61"><g id="node_expander57" display="none" style="cursor: pointer;"><path id="kity_path_619" fill="white" stroke="gray" d="M526.5000332444906,1718.5000234693289A6,6,0,1,1,514.5000332444906,1718.5000234693289A6,6,0,1,1,526.5000332444906,1718.5000234693289"></path><path id="kity_path_620" fill="none" stroke="gray"></path></g><path id="node_outline58" fill="none" stroke="none" d="M531.5000337213278,1707.5000234693289h815a5,5,0,0,1,5,5v12a5,5,0,0,1,-5,5h-815a5,5,0,0,1,-5,-5v-12a5,5,0,0,1,5,-5z"></path><g id="node_text58" fill="black"><text id="kity_text_311" text-rendering="inherit" font-size="12" dy=".8em" y="1712.5000234693289" x="536.5000337213278">会话层负责管理主机间的会话，包括建立、管理、终止进程间会话。会话层使用校验点，使得通信会话失效之后可以从校验点恢复通信，实现数据同步。</text></g></g><g id="minder_node62"><g id="node_expander60" style="cursor: pointer;"><path id="kity_path_628" fill="white" stroke="gray" d="M429.50003035366535,1770.5000250190496A6,6,0,1,1,417.50003035366535,1770.5000250190496A6,6,0,1,1,429.50003035366535,1770.5000250190496"></path><path id="kity_path_629" fill="none" stroke="gray" d="M419.00003035366535,1770.5000250190496L428.00003035366535,1770.5000250190496"></path></g><path id="node_outline61" fill="none" stroke="none" d="M434.5000308305025,1759.5000250190496h47a5,5,0,0,1,5,5v12a5,5,0,0,1,-5,5h-47a5,5,0,0,1,-5,-5v-12a5,5,0,0,1,5,-5z"></path><g id="node_text61" fill="black"><text id="kity_text_317" text-rendering="inherit" font-size="12" dy=".8em" y="1764.5000250190496" x="439.5000308305025">表示层</text></g></g><g id="minder_node63"><g id="node_expander59" display="none" style="cursor: pointer;"><path id="kity_path_625" fill="white" stroke="gray" d="M526.5000332444906,1770.5000250190496A6,6,0,1,1,514.5000332444906,1770.5000250190496A6,6,0,1,1,526.5000332444906,1770.5000250190496"></path><path id="kity_path_626" fill="none" stroke="gray"></path></g><path id="node_outline60" fill="none" stroke="none" d="M531.5000337213278,1759.5000250190496h586a5,5,0,0,1,5,5v12a5,5,0,0,1,-5,5h-586a5,5,0,0,1,-5,-5v-12a5,5,0,0,1,5,-5z"></path><g id="node_text60" fill="black"><text id="kity_text_315" text-rendering="inherit" font-size="12" dy=".8em" y="1764.5000250190496" x="536.5000337213278">为计算机通信提供一种公共语言，以便进行互操作，表示层负责管理数据的压缩、加密与解密、格式转换等。</text></g></g><g id="minder_node64"><g id="node_expander62" style="cursor: pointer;"><path id="kity_path_634" fill="white" stroke="gray" d="M429.50003035366535,1822.5000265687704A6,6,0,1,1,417.50003035366535,1822.5000265687704A6,6,0,1,1,429.50003035366535,1822.5000265687704"></path><path id="kity_path_635" fill="none" stroke="gray" d="M419.00003035366535,1822.5000265687704L428.00003035366535,1822.5000265687704"></path></g><path id="node_outline63" fill="none" stroke="none" d="M434.5000308305025,1811.5000265687704h47a5,5,0,0,1,5,5v12a5,5,0,0,1,-5,5h-47a5,5,0,0,1,-5,-5v-12a5,5,0,0,1,5,-5z"></path><g id="node_text63" fill="black"><text id="kity_text_321" text-rendering="inherit" font-size="12" dy=".8em" y="1816.5000265687704" x="439.5000308305025">应用层</text></g></g><g id="minder_node65"><g id="node_expander61" display="none" style="cursor: pointer;"><path id="kity_path_631" fill="white" stroke="gray" d="M526.5000332444906,1822.5000265687704A6,6,0,1,1,514.5000332444906,1822.5000265687704A6,6,0,1,1,526.5000332444906,1822.5000265687704"></path><path id="kity_path_632" fill="none" stroke="gray"></path></g><path id="node_outline62" fill="none" stroke="none" d="M531.5000337213278,1811.5000265687704h573a5,5,0,0,1,5,5v12a5,5,0,0,1,-5,5h-573a5,5,0,0,1,-5,-5v-12a5,5,0,0,1,5,-5z"></path><g id="node_text62" fill="black"><text id="kity_text_319" text-rendering="inherit" font-size="12" dy=".8em" y="1816.5000265687704" x="536.5000337213278">为操作系统或者网络应用程序提供访问网络服务的接口。协议有：RIP、TELNET、FTP、HTTP、SNMP等</text></g></g><g id="minder_node66"><g id="node_expander78" style="cursor: pointer;"><path id="kity_path_682" fill="white" stroke="gray" d="M299.50002647936344,2095.5000347048044A6,6,0,1,1,287.50002647936344,2095.5000347048044A6,6,0,1,1,299.50002647936344,2095.5000347048044"></path><path id="kity_path_683" fill="none" stroke="gray" d="M289.00002647936344,2095.5000347048044L298.00002647936344,2095.5000347048044"></path></g><path id="node_outline79" fill="none" stroke="none" d="M304.5000269562006,2084.5000347048044h74a5,5,0,0,1,5,5v12a5,5,0,0,1,-5,5h-74a5,5,0,0,1,-5,-5v-12a5,5,0,0,1,5,-5z"></path><g id="node_text79" fill="black"><text id="kity_text_353" text-rendering="inherit" font-size="12" dy=".8em" y="2089.5000347048044" x="309.5000269562006">TCP/IP模型</text></g></g><g id="minder_node67"><g id="node_expander64" display="none" style="cursor: pointer;"><path id="kity_path_640" fill="white" stroke="gray" d="M423.5000301748514,1874.5000281184912A6,6,0,1,1,411.5000301748514,1874.5000281184912A6,6,0,1,1,423.5000301748514,1874.5000281184912"></path><path id="kity_path_641" fill="none" stroke="gray"></path></g><path id="node_outline65" fill="none" stroke="none" d="M428.5000306516886,1863.5000281184912h301a5,5,0,0,1,5,5v12a5,5,0,0,1,-5,5h-301a5,5,0,0,1,-5,-5v-12a5,5,0,0,1,5,-5z"></path><g id="node_text65" fill="#ff0000"><text id="kity_text_325" text-rendering="inherit" font-size="12" dy=".8em" y="1868.5000281184912" x="433.5000306516886">自下而上分为： 网络接口层、网际层、传输层、应用层</text></g></g><g id="minder_node68"><g id="node_expander68" style="cursor: pointer;"><path id="kity_path_652" fill="white" stroke="gray" d="M423.5000301748514,1978.5000312179327A6,6,0,1,1,411.5000301748514,1978.5000312179327A6,6,0,1,1,423.5000301748514,1978.5000312179327"></path><path id="kity_path_653" fill="none" stroke="gray" d="M413.0000301748514,1978.5000312179327L422.0000301748514,1978.5000312179327"></path></g><path id="node_outline69" fill="none" stroke="none" d="M428.5000306516886,1967.5000312179327h70a5,5,0,0,1,5,5v12a5,5,0,0,1,-5,5h-70a5,5,0,0,1,-5,-5v-12a5,5,0,0,1,5,-5z"></path><g id="node_text69" fill="black"><text id="kity_text_333" text-rendering="inherit" font-size="12" dy=".8em" y="1972.5000312179327" x="433.5000306516886">网络接口层</text></g></g><g id="minder_node69"><g id="node_expander65" display="none" style="cursor: pointer;"><path id="kity_path_643" fill="white" stroke="gray" d="M543.5000337511301,1926.500029668212A6,6,0,1,1,531.5000337511301,1926.500029668212A6,6,0,1,1,543.5000337511301,1926.500029668212"></path><path id="kity_path_644" fill="none" stroke="gray"></path></g><path id="node_outline66" fill="none" stroke="none" d="M548.5000342279673,1915.500029668212h826a5,5,0,0,1,5,5v12a5,5,0,0,1,-5,5h-826a5,5,0,0,1,-5,-5v-12a5,5,0,0,1,5,-5z"></path><g id="node_text66" fill="black"><text id="kity_text_327" text-rendering="inherit" font-size="12" dy=".8em" y="1920.500029668212" x="553.5000342279673">对应着OSI模型的下两层。表示与物理网络的接口，但TCP/IP模型并未描述该部分。只是指出主机必须使用哪种协议与网络连接，以便在其上能传输IP分组</text></g></g><g id="minder_node70"><g id="node_expander66" display="none" style="cursor: pointer;"><path id="kity_path_646" fill="white" stroke="gray" d="M543.5000337511301,1978.5000312179327A6,6,0,1,1,531.5000337511301,1978.5000312179327A6,6,0,1,1,543.5000337511301,1978.5000312179327"></path><path id="kity_path_647" fill="none" stroke="gray"></path></g><path id="node_outline67" fill="none" stroke="none" d="M548.5000342279673,1967.5000312179327h443a5,5,0,0,1,5,5v12a5,5,0,0,1,-5,5h-443a5,5,0,0,1,-5,-5v-12a5,5,0,0,1,5,-5z"></path><g id="node_text67" fill="black"><text id="kity_text_329" text-rendering="inherit" font-size="12" dy=".8em" y="1972.5000312179327" x="553.5000342279673">具体的物理网络可以是某种类型的局域网，比如以太网、令牌环网、令牌总线网络</text></g></g><g id="minder_node71"><g id="node_expander67" display="none" style="cursor: pointer;"><path id="kity_path_649" fill="white" stroke="gray" d="M543.5000337511301,2030.5000327676535A6,6,0,1,1,531.5000337511301,2030.5000327676535A6,6,0,1,1,543.5000337511301,2030.5000327676535"></path><path id="kity_path_650" fill="none" stroke="gray"></path></g><path id="node_outline68" fill="none" stroke="none" d="M548.5000342279673,2019.5000327676535h394a5,5,0,0,1,5,5v12a5,5,0,0,1,-5,5h-394a5,5,0,0,1,-5,-5v-12a5,5,0,0,1,5,-5z"></path><g id="node_text68" fill="#ff0000"><text id="kity_text_331" text-rendering="inherit" font-size="12" dy=".8em" y="2024.5000327676535" x="553.5000342279673">网络接口层的责任是从主机或节点接收IP分组，并发送到指定的物理网络</text></g></g><g id="minder_node72"><g id="node_expander71" style="cursor: pointer;"><path id="kity_path_661" fill="white" stroke="gray" d="M423.5000301748514,2108.5000350922346A6,6,0,1,1,411.5000301748514,2108.5000350922346A6,6,0,1,1,423.5000301748514,2108.5000350922346"></path><path id="kity_path_662" fill="none" stroke="gray" d="M413.0000301748514,2108.5000350922346L422.0000301748514,2108.5000350922346"></path></g><path id="node_outline72" fill="none" stroke="none" d="M428.5000306516886,2097.5000350922346h46a5,5,0,0,1,5,5v12a5,5,0,0,1,-5,5h-46a5,5,0,0,1,-5,-5v-12a5,5,0,0,1,5,-5z"></path><g id="node_text72" fill="black"><text id="kity_text_339" text-rendering="inherit" font-size="12" dy=".8em" y="2102.5000350922346" x="433.5000306516886">网际层</text></g></g><g id="minder_node73"><g id="node_expander69" display="none" style="cursor: pointer;"><path id="kity_path_655" fill="white" stroke="gray" d="M519.5000330358744,2082.5000343173742A6,6,0,1,1,507.50003303587437,2082.5000343173742A6,6,0,1,1,519.5000330358744,2082.5000343173742"></path><path id="kity_path_656" fill="none" stroke="gray"></path></g><path id="node_outline70" fill="none" stroke="none" d="M524.5000335127115,2071.5000343173742h613a5,5,0,0,1,5,5v12a5,5,0,0,1,-5,5h-613a5,5,0,0,1,-5,-5v-12a5,5,0,0,1,5,-5z"></path><g id="node_text70" fill="#ff0000"><text id="kity_text_335" text-rendering="inherit" font-size="12" dy=".8em" y="2076.5000343173742" x="529.5000335127115">网际层（主机——主机）是TCP/IP体系结构的关键部分，负责将分组发往任何网络，并使分组独立的传向目的地。</text></g></g><g id="minder_node74"><g id="node_expander70" display="none" style="cursor: pointer;"><path id="kity_path_658" fill="white" stroke="gray" d="M519.5000330358744,2134.500035867095A6,6,0,1,1,507.50003303587437,2134.500035867095A6,6,0,1,1,519.5000330358744,2134.500035867095"></path><path id="kity_path_659" fill="none" stroke="gray"></path></g><path id="node_outline71" fill="none" stroke="none" d="M524.5000335127115,2123.500035867095h599a5,5,0,0,1,5,5v12a5,5,0,0,1,-5,5h-599a5,5,0,0,1,-5,-5v-12a5,5,0,0,1,5,-5z"></path><g id="node_text71" fill="black"><text id="kity_text_337" text-rendering="inherit" font-size="12" dy=".8em" y="2128.500035867095" x="529.5000335127115">分组到达的顺序可能与发送顺序不同，需要高层进行分组排序，网际层定义了标准的分组格式和协议，即IP协议</text></g></g><g id="minder_node75"><g id="node_expander74" style="cursor: pointer;"><path id="kity_path_670" fill="white" stroke="gray" d="M423.5000301748514,2212.500038191676A6,6,0,1,1,411.5000301748514,2212.500038191676A6,6,0,1,1,423.5000301748514,2212.500038191676"></path><path id="kity_path_671" fill="none" stroke="gray" d="M413.0000301748514,2212.500038191676L422.0000301748514,2212.500038191676"></path></g><path id="node_outline75" fill="none" stroke="none" d="M428.5000306516886,2201.500038191676h47a5,5,0,0,1,5,5v12a5,5,0,0,1,-5,5h-47a5,5,0,0,1,-5,-5v-12a5,5,0,0,1,5,-5z"></path><g id="node_text75" fill="black"><text id="kity_text_345" text-rendering="inherit" font-size="12" dy=".8em" y="2206.500038191676" x="433.5000306516886">传输层</text></g></g><g id="minder_node76"><g id="node_expander72" display="none" style="cursor: pointer;"><path id="kity_path_664" fill="white" stroke="gray" d="M520.5000330656767,2186.5000374168158A6,6,0,1,1,508.5000330656767,2186.5000374168158A6,6,0,1,1,520.5000330656767,2186.5000374168158"></path><path id="kity_path_665" fill="none" stroke="gray"></path></g><path id="node_outline73" fill="none" stroke="none" d="M525.5000335425138,2175.5000374168158h527a5,5,0,0,1,5,5v12a5,5,0,0,1,-5,5h-527a5,5,0,0,1,-5,-5v-12a5,5,0,0,1,5,-5z"></path><g id="node_text73" fill="#ff0000"><text id="kity_text_341" text-rendering="inherit" font-size="12" dy=".8em" y="2180.5000374168158" x="530.5000335425138">传输层（进程——进程）的职责是使源端和目的端主机上的对等实体（网络进程）能够进行会话。</text></g></g><g id="minder_node77"><g id="node_expander73" display="none" style="cursor: pointer;"><path id="kity_path_667" fill="white" stroke="gray" d="M520.5000330656767,2238.5000389665365A6,6,0,1,1,508.5000330656767,2238.5000389665365A6,6,0,1,1,520.5000330656767,2238.5000389665365"></path><path id="kity_path_668" fill="none" stroke="gray"></path></g><path id="node_outline74" fill="none" stroke="none" d="M525.5000335425138,2227.5000389665365h739a5,5,0,0,1,5,5v12a5,5,0,0,1,-5,5h-739a5,5,0,0,1,-5,-5v-12a5,5,0,0,1,5,-5z"></path><g id="node_text74" fill="black"><text id="kity_text_343" text-rendering="inherit" font-size="12" dy=".8em" y="2232.5000389665365" x="530.5000335425138">主要有两种协议：面向连接的传输控制协议TCP（提供可靠交付）、无连接的用户数据报协议UDP（不提供可靠交付，“尽最大努力交付”）</text></g></g><g id="minder_node78"><g id="node_expander77" style="cursor: pointer;"><path id="kity_path_679" fill="white" stroke="gray" d="M423.5000301748514,2316.5000412911177A6,6,0,1,1,411.5000301748514,2316.5000412911177A6,6,0,1,1,423.5000301748514,2316.5000412911177"></path><path id="kity_path_680" fill="none" stroke="gray" d="M413.0000301748514,2316.5000412911177L422.0000301748514,2316.5000412911177"></path></g><path id="node_outline78" fill="none" stroke="none" d="M428.5000306516886,2305.5000412911177h47a5,5,0,0,1,5,5v12a5,5,0,0,1,-5,5h-47a5,5,0,0,1,-5,-5v-12a5,5,0,0,1,5,-5z"></path><g id="node_text78" fill="black"><text id="kity_text_351" text-rendering="inherit" font-size="12" dy=".8em" y="2310.5000412911177" x="433.5000306516886">应用层</text></g></g><g id="minder_node79"><g id="node_expander75" display="none" style="cursor: pointer;"><path id="kity_path_673" fill="white" stroke="gray" d="M520.5000330656767,2290.5000405162573A6,6,0,1,1,508.5000330656767,2290.5000405162573A6,6,0,1,1,520.5000330656767,2290.5000405162573"></path><path id="kity_path_674" fill="none" stroke="gray"></path></g><path id="node_outline76" fill="none" stroke="none" d="M525.5000335425138,2279.5000405162573h395a5,5,0,0,1,5,5v12a5,5,0,0,1,-5,5h-395a5,5,0,0,1,-5,-5v-12a5,5,0,0,1,5,-5z"></path><g id="node_text76" fill="#ff0000"><text id="kity_text_347" text-rendering="inherit" font-size="12" dy=".8em" y="2284.5000405162573" x="530.5000335425138">应用层（用户——用户）包含所有的高层协议，面向用户的各种应用需求</text></g></g><g id="minder_node80"><g id="node_expander76" display="none" style="cursor: pointer;"><path id="kity_path_676" fill="white" stroke="gray" d="M520.5000330656767,2342.500042065978A6,6,0,1,1,508.5000330656767,2342.500042065978A6,6,0,1,1,520.5000330656767,2342.500042065978"></path><path id="kity_path_677" fill="none" stroke="gray"></path></g><path id="node_outline77" fill="none" stroke="none" d="M525.5000335425138,2331.500042065978h615a5,5,0,0,1,5,5v12a5,5,0,0,1,-5,5h-615a5,5,0,0,1,-5,-5v-12a5,5,0,0,1,5,-5z"></path><g id="node_text77" fill="black"><text id="kity_text_349" text-rendering="inherit" font-size="12" dy=".8em" y="2336.500042065978" x="530.5000335425138">常见协议有：Telnet（虚拟终端协议）、FTP（文件传输协议）、DNS（域名解析服务）、SMTP（电子邮件协议）</text></g></g><g id="minder_node81"><g id="node_expander81" style="cursor: pointer;"><path id="kity_path_691" fill="white" stroke="gray" d="M299.50002647936344,2420.500044390559A6,6,0,1,1,287.50002647936344,2420.500044390559A6,6,0,1,1,299.50002647936344,2420.500044390559"></path><path id="kity_path_692" fill="none" stroke="gray" d="M289.00002647936344,2420.500044390559L298.00002647936344,2420.500044390559"></path></g><path id="node_outline82" fill="none" stroke="none" d="M304.5000269562006,2409.500044390559h47a5,5,0,0,1,5,5v12a5,5,0,0,1,-5,5h-47a5,5,0,0,1,-5,-5v-12a5,5,0,0,1,5,-5z"></path><g id="node_text82" fill="black"><text id="kity_text_359" text-rendering="inherit" font-size="12" dy=".8em" y="2414.500044390559" x="309.5000269562006">注意点</text></g></g><g id="minder_node82"><g id="node_expander79" display="none" style="cursor: pointer;"><path id="kity_path_685" fill="white" stroke="gray" d="M396.5000293701887,2394.500043615699A6,6,0,1,1,384.5000293701887,2394.500043615699A6,6,0,1,1,396.5000293701887,2394.500043615699"></path><path id="kity_path_686" fill="none" stroke="gray"></path></g><path id="node_outline80" fill="none" stroke="none" d="M401.50002984702587,2383.500043615699h499a5,5,0,0,1,5,5v12a5,5,0,0,1,-5,5h-499a5,5,0,0,1,-5,-5v-12a5,5,0,0,1,5,-5z"></path><g id="node_text80" fill="black"><text id="kity_text_355" text-rendering="inherit" font-size="12" dy=".8em" y="2388.500043615699" x="406.50002984702587">ISO/OSI参考模型在网络层支持无连接和面向连接的通信，而在传输层仅有面向连接的通信。</text></g></g><g id="minder_node83"><g id="node_expander80" display="none" style="cursor: pointer;"><path id="kity_path_688" fill="white" stroke="gray" d="M396.5000293701887,2446.5000451654196A6,6,0,1,1,384.5000293701887,2446.5000451654196A6,6,0,1,1,396.5000293701887,2446.5000451654196"></path><path id="kity_path_689" fill="none" stroke="gray"></path></g><path id="node_outline81" fill="none" stroke="none" d="M401.50002984702587,2435.5000451654196h625a5,5,0,0,1,5,5v12a5,5,0,0,1,-5,5h-625a5,5,0,0,1,-5,-5v-12a5,5,0,0,1,5,-5z"></path><g id="node_text81" fill="#ff0000"><text id="kity_text_357" text-rendering="inherit" font-size="12" dy=".8em" y="2440.5000451654196" x="406.50002984702587">TCP/IP模型认为可靠性是端到端的问题，因此它在网际层仅提供无连接通信，但在传输层支持无连接和面向连接两种</text></g></g><g id="minder_node84"><g id="node_expander83" style="cursor: pointer;"><path id="kity_path_697" fill="white" stroke="gray" d="M299.50002647936344,2498.5000467151403A6,6,0,1,1,287.50002647936344,2498.5000467151403A6,6,0,1,1,299.50002647936344,2498.5000467151403"></path><path id="kity_path_698" fill="none" stroke="gray" d="M289.00002647936344,2498.5000467151403L298.00002647936344,2498.5000467151403"></path></g><path id="node_outline84" fill="none" stroke="none" d="M304.5000269562006,2487.5000467151403h59a5,5,0,0,1,5,5v12a5,5,0,0,1,-5,5h-59a5,5,0,0,1,-5,-5v-12a5,5,0,0,1,5,-5z"></path><g id="node_text84" fill="black"><text id="kity_text_363" text-rendering="inherit" font-size="12" dy=".8em" y="2492.5000467151403" x="309.5000269562006">五层模型</text></g></g><g id="minder_node85"><g id="node_expander82" display="none" style="cursor: pointer;"><path id="kity_path_694" fill="white" stroke="gray" d="M408.5000297278166,2498.5000467151403A6,6,0,1,1,396.5000297278166,2498.5000467151403A6,6,0,1,1,408.5000297278166,2498.5000467151403"></path><path id="kity_path_695" fill="none" stroke="gray"></path></g><path id="node_outline83" fill="none" stroke="none" d="M413.50003020465374,2487.5000467151403h263a5,5,0,0,1,5,5v12a5,5,0,0,1,-5,5h-263a5,5,0,0,1,-5,-5v-12a5,5,0,0,1,5,-5z"></path><g id="node_text83" fill="#ff0000"><text id="kity_text_361" text-rendering="inherit" font-size="12" dy=".8em" y="2492.5000467151403" x="418.50003020465374">物理层、数据链路层、网络层、传输层、应用层</text></g></g></g></g></svg>